<?xml version="1.0" encoding="iso-8859-1"?>
<!-- Generator: Adobe Illustrator 19.0.0, SVG Export Plug-In . SVG Version: 6.00 Build 0)  -->
<svg version="1.1" id="Layer_1" xmlns="http://www.w3.org/2000/svg" xmlns:xlink="http://www.w3.org/1999/xlink" x="0px" y="0px"
	 viewBox="0 0 509.287 509.287" style="enable-background:new 0 0 509.287 509.287;" xml:space="preserve">
<circle style="fill:#886C60;" cx="254.644" cy="254.644" r="254.644"/>
<polygon style="fill:#FCFCFD;" points="321.102,63.068 105.113,63.068 105.113,440.117 412.991,440.117 412.991,154.956 "/>
<g>
	<polygon style="fill:#F1F3F7;" points="321.102,154.956 412.991,154.956 321.102,63.068 	"/>
	<rect x="154.956" y="140.037" style="fill:#F1F3F7;" width="134.951" height="14.58"/>
	<rect x="154.956" y="193.95" style="fill:#F1F3F7;" width="208.53" height="14.58"/>
	<rect x="154.956" y="247.862" style="fill:#F1F3F7;" width="208.53" height="14.58"/>
	<rect x="154.956" y="301.775" style="fill:#F1F3F7;" width="208.53" height="14.58"/>
	<rect x="154.956" y="355.687" style="fill:#F1F3F7;" width="208.53" height="14.58"/>
</g>
<g>
	<polygon style="fill:#F0582F;" points="302.792,466.903 292.62,445.881 271.597,455.714 305.505,361.113 336.36,371.963 	"/>
	<polygon style="fill:#F0582F;" points="360.774,466.903 370.946,445.881 391.968,455.714 358.4,361.113 327.205,371.963 	"/>
</g>
<path style="fill:#FBD303;" d="M337.038,284.143L337.038,284.143c4.069-3.391,10.172-2.034,12.207,2.713l0,0
	c1.695,3.391,5.764,5.425,9.494,4.069l0,0c5.086-1.356,9.833,2.034,10.172,7.46l0,0c0,3.73,3.052,7.121,6.781,7.46l0,0
	c5.086,0.678,8.138,6.103,6.103,10.85l0,0c-1.356,3.73,0,7.799,3.052,9.833l0,0c4.408,2.713,5.086,8.816,1.356,12.546l0,0
	c-2.713,2.713-3.391,7.121-1.017,10.172l0,0c3.052,4.408,1.017,10.172-3.73,11.868l0,0c-3.73,1.356-5.764,5.086-5.086,8.816l0,0
	c1.017,5.086-3.052,9.833-8.477,9.155l0,0c-3.73-0.339-7.46,2.374-8.138,6.103l0,0c-1.356,5.086-6.781,7.46-11.528,5.086l0,0
	c-3.391-1.695-7.799-1.017-10.172,2.034l0,0c-3.052,4.069-9.494,4.069-12.546,0l0,0c-2.373-3.052-6.781-4.069-10.172-2.034l0,0
	c-4.408,2.374-10.172,0-11.528-5.086l0,0c-1.017-3.73-4.408-6.442-8.138-6.103l0,0c-5.086,0.339-9.494-4.069-8.477-9.155l0,0
	c0.678-3.73-1.356-7.46-5.086-8.816l0,0c-4.747-1.695-6.781-7.799-3.73-11.868l0,0c2.374-3.052,1.695-7.46-1.017-10.172l0,0
	c-3.73-3.73-3.052-9.833,1.356-12.546l0,0c3.391-2.034,4.747-6.103,3.052-9.833l0,0c-2.034-4.747,1.017-10.172,6.103-10.85l0,0
	c3.73-0.339,6.781-3.73,6.781-7.46l0,0c0-5.086,5.086-8.816,10.172-7.46l0,0c3.73,1.017,7.799-0.678,9.494-4.069l0,0
	c2.374-4.747,8.138-6.103,12.207-2.713l0,0C329.579,286.517,333.987,286.517,337.038,284.143z"/>
<circle style="fill:#F8B517;" cx="331.952" cy="338.734" r="37.637"/>
<polygon style="fill:#FCFCFD;" points="331.952,303.131 339.751,327.883 366.199,327.883 344.837,343.142 352.975,368.233 
	331.952,352.636 310.591,368.233 318.728,343.142 297.706,327.883 323.815,327.883 "/>
<g>
</g>
<g>
</g>
<g>
</g>
<g>
</g>
<g>
</g>
<g>
</g>
<g>
</g>
<g>
</g>
<g>
</g>
<g>
</g>
<g>
</g>
<g>
</g>
<g>
</g>
<g>
</g>
<g>
</g>
</svg>
