<?xml version="1.0" encoding="utf-8"?>
<!-- Generator: Adobe Illustrator 20.1.0, SVG Export Plug-In . SVG Version: 6.00 Build 0)  -->
<svg version="1.1" id="Слой_1" xmlns="http://www.w3.org/2000/svg" xmlns:xlink="http://www.w3.org/1999/xlink" x="0px" y="0px"
	 viewBox="0 0 582 240.7" style="enable-background:new 0 0 582 240.7;" xml:space="preserve">
<style type="text/css">
	.st0{fill:none;}
	.st1{fill:#C12A2F;}
	.st2{fill:#090909;}
	.st3{fill:#119246;}
	.st4{fill:#56B472;}
	.st5{fill:#20A84C;}
	.st6{fill:#14763B;}
	.st7{fill:#0E6838;}
	.st8{fill:#8BBF40;}
	.st9{fill:#B1CF6B;}
	.st10{fill:#B6D169;}
	.st11{fill:#D8DB20;}
	.st12{fill:#FDEB21;}
	.st13{fill:#F5CA50;}
	.st14{fill:#F7DB65;}
	.st15{fill:#F9AF3B;}
	.st16{fill:#F1883A;}
	.st17{fill:#EB6037;}
	.st18{fill:#E73535;}
</style>
<g>
	<path class="st0" d="M271.3,60.6c1.2,0,2.1-0.6,2.7-2c0.6-1.3,0.7-2.9,0.7-5.7c0-2.8-0.1-4.4-0.7-5.7c-0.6-1.3-1.5-2-2.7-2
		c-1.2,0-2.1,0.6-2.7,2c-0.6,1.3-0.7,2.9-0.7,5.7c0,2.3,0.1,4.2,0.7,5.7C269.1,59.8,269.9,60.6,271.3,60.6z"/>
	<path class="st0" d="M424.4,95.2c-5.3,0-9.5,4-10.4,9.5h20.5C433.4,98.8,429.2,95.2,424.4,95.2z"/>
	<path class="st0" d="M331.5,106.9c0-6.6-4.5-11.7-10.6-11.7c-6.2,0-10.6,5.1-10.6,11.7c0,6.6,4.5,11.6,10.6,11.6
		C327,118.5,331.5,113.5,331.5,106.9z"/>
	<path class="st0" d="M272.3,106.9c0-6.6-4.5-11.7-10.6-11.7c-6.2,0-10.6,5.1-10.6,11.7c0,6.6,4.5,11.6,10.6,11.6
		C267.8,118.5,272.3,113.5,272.3,106.9z"/>
	<path class="st0" d="M350.1,219.8c-1.1,0.8-1.4,1.9-1.4,2.8c0,1.4,1,2.4,2.8,2.4c3.8,0,4-3.3,4-5.3v-1.5l-1.6,0.3
		C351.5,218.8,350.4,219.5,350.1,219.8z"/>
	<path class="st0" d="M295,150.1c-6.2,0-10.6,5.1-10.6,11.7c0,6.6,4.5,11.6,10.6,11.6c6.2,0,10.6-5,10.6-11.6
		C305.6,155.2,301.2,150.1,295,150.1z"/>
	<path class="st0" d="M448.4,173.4c6.2,0,10.6-5,10.6-11.6c0-6.6-4.5-11.7-10.6-11.7c-6.2,0-10.6,5.1-10.6,11.7
		C437.8,168.4,442.2,173.4,448.4,173.4z"/>
	<path class="st0" d="M292.4,219.8c-1.1,0.8-1.4,1.9-1.4,2.8c0,1.4,1,2.4,2.8,2.4c3.8,0,4-3.3,4-5.3v-1.5l-1.6,0.3
		C293.8,218.8,292.8,219.5,292.4,219.8z"/>
	<path class="st0" d="M453.8,46.5c-0.9-1.1-2-1.2-2.6-1.2c-0.7,0-1.8,0.1-2.7,1.2c-0.7,0.8-1.2,2.1-1.1,3.4h7.3
		C454.8,48.7,454.5,47.4,453.8,46.5z"/>
	<path class="st0" d="M207.3,209.9c-1.2,0-2.1,0.6-2.7,2c-0.6,1.3-0.7,2.9-0.7,5.7c0,2.3,0.1,4.2,0.7,5.7c0.6,1.2,1.3,2,2.7,2
		c1.2,0,2.1-0.6,2.7-2c0.6-1.3,0.7-2.9,0.7-5.7c0-2.8-0.1-4.4-0.7-5.7C209.4,210.6,208.5,209.9,207.3,209.9z"/>
	<path class="st0" d="M241,150.1c-5.3,0-9.5,4-10.4,9.5h20.5C250,153.7,245.8,150.1,241,150.1z"/>
	<path class="st0" d="M337.7,54h-2v6h1.9c0.9,0,1.8-0.2,2.3-0.7c0.9-0.7,0.9-1.9,0.9-2.3c0-0.8-0.2-1.6-0.9-2.3
		C339.2,54.1,338.3,54,337.7,54z"/>
	<path class="st0" d="M355.5,150.1c-6,0-10.9,5-10.9,11.8c0,6.6,5.1,11.5,11,11.5c6,0,10.8-5.1,10.8-11.5
		C366.3,155.4,361.7,150.1,355.5,150.1z"/>
	<path class="st0" d="M264.6,210.2c-0.8,0-1.5,0.3-1.9,0.8c-0.9,0.9-0.9,2.3-0.9,3.3v5.9c0,1.5,0.1,2.7,0.6,3.5
		c0.3,0.4,0.9,1.4,2.3,1.4c1.1,0,2.2-0.6,2.8-2.3c0.5-1.2,0.6-2.8,0.6-5.4c0-2.9-0.3-4.3-0.7-5.3
		C266.6,210.7,265.6,210.2,264.6,210.2z"/>
	<path class="st0" d="M242.3,60.6c1.1,0,2.2-0.6,2.8-2.3c0.5-1.2,0.6-2.8,0.6-5.4c0-2.9-0.3-4.3-0.7-5.3c-0.7-1.5-1.7-2-2.7-2
		c-0.8,0-1.5,0.3-1.9,0.8c-0.9,0.9-0.9,2.3-0.9,3.3v5.9c0,1.5,0.1,2.7,0.6,3.5C240.3,59.6,240.9,60.6,242.3,60.6z"/>
	<path class="st0" d="M527.9,161.9h-7.3v10.8h7.3c3.9,0,5.7-2.6,5.7-5.4C533.6,164.5,531.8,161.9,527.9,161.9z"/>
	<path class="st0" d="M510.9,118.7c6,0,10.8-5.1,10.8-11.5c0-6.6-4.7-11.8-10.9-11.8c-6,0-10.9,5-10.9,11.8
		C499.9,113.9,505,118.7,510.9,118.7z"/>
	<path class="st0" d="M209.2,173.4c6.3,0,10.4-4.9,10.4-11.1c0-6.7-4.4-11.1-10.4-11.1c-6.1,0-10.4,4.8-10.4,11.1
		S203.2,173.4,209.2,173.4z"/>
	<path class="st0" d="M500.2,220.7c-1.1,0.8-1.4,1.9-1.4,2.8c0,1.4,1,2.4,2.8,2.4c3.8,0,4-3.3,4-5.3V219l-1.6,0.3
		C501.6,219.7,500.6,220.4,500.2,220.7z"/>
	<path class="st0" d="M567.2,46.6c-0.4,0.4-0.9,1.1-0.9,2.3c0,1.1,0.4,1.9,0.9,2.3c0.8,0.7,1.9,0.7,2.8,0.7h2.1v-6.2h-2.4
		C569,45.8,567.9,45.9,567.2,46.6z"/>
	<path class="st0" d="M537.7,55.4c-1.1,0.8-1.4,1.9-1.4,2.8c0,1.4,1,2.4,2.8,2.4c3.8,0,4-3.3,4-5.3v-1.5l-1.6,0.3
		C539.1,54.5,538.1,55.2,537.7,55.4z"/>
	<polygon class="st0" points="48.9,54.8 48.9,54.9 48.9,54.8 	"/>
	<path class="st0" d="M469.4,211.9c0,5.5-0.5,8.9-1.6,12.1h5v-12.9h-3.4V211.9z"/>
	<path class="st0" d="M417,210.2c-0.8,0-1.5,0.3-1.9,0.8c-0.9,0.9-0.9,2.3-0.9,3.3v5.9c0,1.5,0.1,2.7,0.6,3.5
		c0.3,0.4,0.9,1.4,2.3,1.4c1.1,0,2.2-0.6,2.8-2.3c0.5-1.2,0.6-2.8,0.6-5.4c0-2.9-0.3-4.3-0.7-5.3C419.1,210.7,418,210.2,417,210.2z"
		/>
	<polygon class="st1" points="206,38.6 214.1,38.6 214.1,66.5 224.6,66.5 224.6,30.1 195.5,30.1 195.5,66.5 206,66.5 	"/>
	<path class="st1" d="M239.5,63.6L239.5,63.6c0.7,1,1.4,1.9,2.8,2.5c1.1,0.5,2.5,0.9,3.9,0.9c2.2,0,4.9-0.7,7.1-3.9
		c2.2-3.1,2.7-7,2.7-10.5c0-2.9-0.3-7-2.5-10.2c-1.6-2.3-3.6-3.7-6.7-3.7c-2,0-4,0.5-5.4,1.6c-1,0.7-1.9,2.1-2.5,3.2l0-0.3v-3.9
		h-9.2v35.8h9.9V63.6z M239.5,49.7c0-1,0-2.4,0.9-3.3c0.5-0.5,1.2-0.8,1.9-0.8c1,0,2.1,0.5,2.7,2c0.5,1,0.7,2.4,0.7,5.3
		c0,2.7-0.2,4.2-0.6,5.4c-0.7,1.7-1.7,2.3-2.8,2.3c-1.4,0-2-1-2.3-1.4c-0.5-0.8-0.6-2-0.6-3.5V49.7z"/>
	<path class="st1" d="M271.3,67c4.4,0,7.4-1.7,9.4-3.7c2.7-2.7,4.2-6.6,4.2-10.5c0-3.9-1.5-7.8-4.2-10.5c-2-2-5-3.7-9.4-3.7
		c-4.4,0-7.4,1.7-9.4,3.7c-2.7,2.7-4.2,6.6-4.2,10.5c0,3.9,1.5,7.8,4.2,10.5C263.9,65.4,266.9,67,271.3,67z M268.6,47.3
		c0.6-1.3,1.5-2,2.7-2c1.2,0,2.1,0.6,2.7,2c0.6,1.3,0.7,2.9,0.7,5.7c0,2.8-0.1,4.4-0.7,5.7c-0.6,1.4-1.5,2-2.7,2
		c-1.4,0-2.2-0.7-2.7-2c-0.7-1.5-0.7-3.3-0.7-5.7C267.9,50.2,268,48.5,268.6,47.3z"/>
	<path class="st1" d="M295.4,49.1c0-0.5-0.1-2-0.2-2.7c0.6,1.8,0.5,1.7,0.7,2.3l5.1,17.8h5.9l4.9-17.8c0.1-0.4,0.1-0.5,0.3-1.1
		c0-0.1,0.1-0.3,0.2-0.4c0.1-0.3,0.2-0.5,0.3-0.7c-0.1,1.4-0.2,1.9-0.2,2.7v17.5h8.9V39.4h-12.5l-3.9,14.1l-3.9-14.1h-12.7v27.2h7.3
		V49.1z"/>
	<path class="st1" d="M348.1,64.3c1.8-1.6,2.8-4.7,2.8-7.3c0-2.8-1.2-4.9-2.5-6.1c-2.2-2-5.1-2.2-7.2-2.2h-5.6v-9.3h-9.9v27.2h15.6
		C342.9,66.5,345.8,66.5,348.1,64.3z M339.9,59.3c-0.6,0.5-1.4,0.7-2.3,0.7h-1.9v-6h2c0.6,0,1.5,0.1,2.2,0.7
		c0.8,0.6,0.9,1.5,0.9,2.3C340.8,57.4,340.7,58.6,339.9,59.3z"/>
	<rect x="352.4" y="39.4" class="st1" width="9.9" height="27.2"/>
	<polygon class="st1" points="405.6,39.4 395.9,39.4 395.9,59.4 391.1,59.4 391.1,39.4 381.4,39.4 381.4,59.4 376.6,59.4 
		376.6,39.4 366.9,39.4 366.9,66.5 405.6,66.5 	"/>
	<path class="st1" d="M416.5,64.7c2.1-2,3.1-4.6,3.7-9.7c0.3-2.1,0.4-4.5,0.6-8.6h3.3v20.1h9.9V39.4h-20.8V42c0,2.2,0,4.8-0.2,7.1
		c-0.3,5.1-0.8,7.2-1.6,8.5c-0.9,1.6-2.2,1.8-3,1.9c-0.3,0-0.5,0-0.8,0v7.1c1,0.3,2,0.3,3,0.3C413.1,66.8,414.8,66.3,416.5,64.7z"/>
	<path class="st1" d="M450.9,67c2.7,0,6.2-0.4,9.2-2.7c2.9-2.2,3.8-4.8,4.2-6.7l-9.2-0.6c0,1.2-0.6,2-1,2.5
		c-0.4,0.4-1.3,1.1-2.7,1.1c-1.6,0-2.6-0.7-3.2-1.6c-0.6-0.9-1-2.3-0.9-3.7h17.1v-1.6c0-2.3-0.3-7-3.7-10.7c-3.2-3.5-7-4.1-9.7-4.1
		c-2.4,0-6.3,0.4-9.5,3.2c-2.1,1.9-4.5,5.3-4.5,10.9c0,5,1.9,8.4,4,10.5C444.3,66.5,447.7,67,450.9,67z M448.5,46.5
		c1-1.1,2-1.2,2.7-1.2c0.6,0,1.8,0.1,2.6,1.2c0.7,0.8,1,2.2,0.9,3.4h-7.3C447.3,48.6,447.8,47.3,448.5,46.5z"/>
	<polygon class="st1" points="477.7,55.9 483.2,55.9 483.2,66.5 493.1,66.5 493.1,39.4 483.2,39.4 483.2,48.8 477.7,48.8 
		477.7,39.4 467.8,39.4 467.8,66.5 477.7,66.5 	"/>
	<polygon class="st1" points="507.6,55.9 513.1,55.9 513.1,66.5 523.1,66.5 523.1,39.4 513.1,39.4 513.1,48.8 507.6,48.8 
		507.6,39.4 497.7,39.4 497.7,66.5 507.6,66.5 	"/>
	<path class="st1" d="M552.6,60.6V50c0-2.2,0-4.4-1-6.4c-2.1-4.2-6.9-4.7-11.1-4.7c-2.9,0-6.4,0.2-9.2,2.2c-1.4,1-3.2,3.8-4,7.3l9,0
		c0.1-0.7,0-3.5,3.9-2.9c1.3,0.2,2.1,0.4,2.5,0.8c0.6,0.7,0.6,1.8,0.6,2.3v0.4l-1.9,0.2c-3.8,0.3-9.2,1.1-12.1,3.6
		c-2,1.6-2.9,4.1-2.9,6.5c0,3.6,2.4,7.9,9,7.9c5.1,0,7.4-2.7,8.4-4.3c0,1.9,0.1,3.1,0.3,3.8l9.3,0C552.4,63.8,552.6,62.1,552.6,60.6
		z M543.1,55.3c0,2-0.3,5.3-4,5.3c-1.8,0-2.8-1-2.8-2.4c0-0.8,0.4-2,1.4-2.8c0.4-0.3,1.4-1,3.8-1.4l1.6-0.3V55.3z"/>
	<path class="st1" d="M567,39.4c-2.4,0-5.5,0.3-7.9,2.2c-1.4,1.2-3,3.3-3,6.9c0,2.4,0.8,4.1,1.7,5.2c0.9,1.1,2.2,1.9,3.4,2.3
		l-5.8,10.6h10.5l4-9.2h2.1v9.2h9.9V39.4H567z M572,52h-2.1c-0.9,0-2,0-2.8-0.7c-0.5-0.5-0.9-1.3-0.9-2.3c0-1.3,0.5-2,0.9-2.3
		c0.8-0.7,1.9-0.8,2.5-0.8h2.4V52z"/>
	<path class="st2" d="M208.1,95.2c5,0,9.7,3.4,10.7,9.5h-15.5v3.6h15.6c-0.7,5.8-5.3,10.2-10.8,10.2c-3.4,0-7.3-1.5-9.3-5.6h-4.1
		c2.4,6.2,7.5,9.2,13.4,9.2c9.4,0,14.6-7.6,14.6-15.2c0-7.1-4.9-15.2-14.6-15.2c-9.4,0-12.8,7.9-13.4,9.5h4.2
		C200.8,97.5,204.1,95.2,208.1,95.2z"/>
	<rect x="227.1" y="92.4" class="st2" width="3.7" height="29"/>
	<polygon class="st2" points="240.7,92.4 231,106.7 241,121.4 245.8,121.4 234.6,106.4 245.1,92.4 	"/>
	<path class="st2" d="M276,106.9c0-8.6-6.2-15.2-14.3-15.2c-8.1,0-14.3,6.6-14.3,15.2c0,8.6,6.3,15.2,14.3,15.2
		C269.7,122.1,276,115.6,276,106.9z M251,106.9c0-6.6,4.5-11.7,10.6-11.7c6.2,0,10.6,5.1,10.6,11.7c0,6.6-4.5,11.6-10.6,11.6
		C255.5,118.5,251,113.5,251,106.9z"/>
	<polygon class="st2" points="289.3,92.4 277.6,121.4 281.6,121.4 291.2,97.4 300.8,121.4 304.8,121.4 293.2,92.4 	"/>
	<path class="st2" d="M335.2,106.9c0-8.6-6.2-15.2-14.3-15.2c-8.1,0-14.3,6.6-14.3,15.2c0,8.6,6.3,15.2,14.3,15.2
		C328.9,122.1,335.2,115.6,335.2,106.9z M310.2,106.9c0-6.6,4.5-11.7,10.6-11.7c6.2,0,10.6,5.1,10.6,11.7c0,6.6-4.5,11.6-10.6,11.6
		C314.7,118.5,310.2,113.5,310.2,106.9z"/>
	<polygon class="st2" points="339.5,121.4 343.2,121.4 343.2,95.9 353.8,95.9 353.8,92.4 339.5,92.4 	"/>
	<polygon class="st2" points="380.5,121.4 380.5,92.4 376.8,92.4 360.4,115.8 360.4,92.4 356.7,92.4 356.7,121.4 360.4,121.4 
		376.8,97.9 376.8,121.4 	"/>
	<path class="st2" d="M405.7,121.4v-29H402v14.5h-7.1c-1.3,0-3.1,0.1-4.4-1.2c-1.4-1.3-1.4-3.3-1.4-5.1v-8.2h-3.7v8.2
		c0,2.8,0.1,5.1,1.9,7.3c2.1,2.4,4.8,2.6,7.7,2.6h7.1v10.9H405.7z"/>
	<path class="st2" d="M424.4,91.7c-9.3,0-14.3,8.1-14.3,15.2c0,8.7,6.2,15.2,14.3,15.2c6.2,0,11.2-3.9,13.4-10.1H434
		c-1.7,4-5.3,6.6-9.6,6.6c-5.8,0-10-4.5-10.4-10.2h24.5C438.5,100.8,434.8,91.7,424.4,91.7z M424.4,95.2c4.8,0,9,3.6,10.1,9.5H414
		C414.9,99.2,419.1,95.2,424.4,95.2z"/>
	<path class="st2" d="M441.9,106.9c0,7.6,5.3,15.2,14.6,15.2c7.5,0,11.5-4.9,13.3-9.2h-4.1c-2,3.7-5.5,5.6-9.2,5.6
		c-6,0-10.9-5.1-10.9-11.7c0-6.4,4.6-11.6,10.9-11.6c1.3,0,6.5,0.2,9.2,5.9h4.2c-2.2-5.7-7-9.5-13.4-9.5
		C446.9,91.7,441.9,99.9,441.9,106.9z"/>
	<polygon class="st2" points="489.1,92.4 478.4,106.7 489.4,121.4 494.1,121.4 482.9,106.4 493.4,92.4 	"/>
	<rect x="474.5" y="92.4" class="st2" width="3.7" height="29"/>
	<path class="st2" d="M528.6,101.9c0,5,5.5,8.9,10.2,9.2l-9.7,10.2h4.3l12.7-13.5l-7.3,0.1c-4.6,0-6.4-2.6-6.4-5.8
		c0-6.2,5.6-6.2,6.4-6.2h7.4v25.5h3.7v-29h-11.1C532.2,92.4,528.6,97,528.6,101.9z"/>
	<path class="st2" d="M209.2,177c8.4,0,14.1-6.2,14.1-14.7c0-9-5.8-14.7-14-14.7c-1.7,0-8.4,0.5-11.4,7.5h-0.1
		c0.7-12.5,9.2-12.5,12.8-12.7l11.6-0.6v-3.6l-11.6,0.6c-6.6,0.5-16.1,1.8-16.1,19.3C194.5,171.7,201.1,177,209.2,177z M209.2,151.1
		c6,0,10.4,4.4,10.4,11.1c0,6.2-4.2,11.1-10.4,11.1c-6,0-10.4-4.8-10.4-11.1S203.2,151.1,209.2,151.1z"/>
	<path class="st2" d="M250.6,166.8c-1.7,4-5.3,6.6-9.6,6.6c-5.8,0-10-4.5-10.4-10.2h24.5c0.1-7.5-3.7-16.6-14.1-16.6
		c-9.3,0-14.3,8.1-14.3,15.2c0,8.7,6.2,15.2,14.3,15.2c6.2,0,11.2-3.9,13.4-10.1H250.6z M241,150.1c4.8,0,9,3.6,10.1,9.5h-20.5
		C231.5,154.1,235.8,150.1,241,150.1z"/>
	<path class="st2" d="M268,173.4c-3.9,0-6-2.3-6-5.5h-3.7c0,4.8,2.8,9,9.7,9c5.6,0,9.4-3.6,9.4-8.6c0-3.5-1.7-6.3-4.9-7.2
		c2.8-1.2,4.2-4,4.2-7c0-5.5-4.6-7.6-8.6-7.6c-3.7,0-8.3,2-8.8,7.8h3.7c0.4-2.4,2.1-4.2,5.3-4.2c3.3,0,4.7,2.2,4.7,4.6
		c0,2.6-1.6,4.9-5,4.9h-2.5v3.6h2.5c4.7,0,5.7,2.9,5.7,5.3C273.7,170,272.9,173.4,268,173.4z"/>
	<path class="st2" d="M295,146.6c-8.1,0-14.3,6.6-14.3,15.2c0,8.6,6.3,15.2,14.3,15.2c8.1,0,14.3-6.5,14.3-15.2
		C309.3,153.1,303.1,146.6,295,146.6z M295,173.4c-6.2,0-10.6-5-10.6-11.6c0-6.6,4.5-11.7,10.6-11.7c6.2,0,10.6,5.1,10.6,11.7
		C305.6,168.4,301.2,173.4,295,173.4z"/>
	<polygon class="st2" points="313.7,176.3 317.4,176.3 317.4,150.8 332.8,150.8 332.8,176.3 336.5,176.3 336.5,147.3 313.7,147.3 	
		"/>
	<path class="st2" d="M366.3,152.3L366.3,152.3c-3.4-5.4-8.5-5.7-10.9-5.7c-9.8,0-14.6,8.1-14.6,15c0,9,6.5,15.4,14.7,15.4
		c6,0,9.1-3.6,10.7-6.1h0.1v5.4h3.5l-0.1-24L366.3,152.3z M355.6,173.4c-5.9,0-11-4.9-11-11.5c0-6.7,4.9-11.8,10.9-11.8
		c6.2,0,10.9,5.3,10.9,11.8C366.3,168.3,361.6,173.4,355.6,173.4z"/>
	<path class="st2" d="M388.9,177c7.5,0,11.5-4.9,13.3-9.2h-4.1c-2,3.7-5.5,5.6-9.2,5.6c-6,0-10.9-5.1-10.9-11.7
		c0-6.4,4.6-11.6,10.9-11.6c1.3,0,6.5,0.2,9.2,5.9h4.2c-2.2-5.7-7-9.5-13.4-9.5c-9.6,0-14.6,8.2-14.6,15.2
		C374.3,169.3,379.5,177,388.9,177z"/>
	<polygon class="st2" points="410.6,163.2 426,163.2 426,176.3 429.7,176.3 429.7,147.3 426,147.3 426,159.6 410.6,159.6 
		410.6,147.3 406.9,147.3 406.9,176.3 410.6,176.3 	"/>
	<path class="st2" d="M448.4,177c8.1,0,14.3-6.5,14.3-15.2c0-8.6-6.2-15.2-14.3-15.2c-8.1,0-14.3,6.6-14.3,15.2
		C434.1,170.4,440.3,177,448.4,177z M448.4,150.1c6.2,0,10.6,5.1,10.6,11.7c0,6.6-4.5,11.6-10.6,11.6c-6.2,0-10.6-5-10.6-11.6
		C437.8,155.2,442.2,150.1,448.4,150.1z"/>
	<path class="st2" d="M480.7,150.1c1.3,0,6.5,0.2,9.2,5.9h4.2c-2.2-5.7-7-9.5-13.4-9.5c-9.6,0-14.6,8.2-14.6,15.2
		c0,7.6,5.3,15.2,14.6,15.2c7.5,0,11.5-4.9,13.3-9.2h-4.1c-2,3.7-5.5,5.6-9.2,5.6c-6,0-10.9-5.1-10.9-11.7
		C469.8,155.3,474.3,150.1,480.7,150.1z"/>
	<polygon class="st2" points="503.2,176.3 506.9,176.3 506.9,150.8 514,150.8 514,147.3 496.1,147.3 496.1,150.8 503.2,150.8 	"/>
	<path class="st2" d="M528,158.3h-7.4v-11.1h-3.7v29H528c7.4,0,9.3-5.6,9.3-9C537.3,164,535.4,158.3,528,158.3z M527.9,172.7h-7.3
		v-10.8h7.3c3.9,0,5.7,2.6,5.7,5.4C533.6,170.1,531.8,172.7,527.9,172.7z"/>
	<path class="st1" d="M207.3,203.5c-4.4,0-7.4,1.7-9.4,3.7c-2.7,2.7-4.2,6.6-4.2,10.5c0,3.9,1.5,7.8,4.2,10.5c2,2,5,3.7,9.4,3.7
		c4.4,0,7.4-1.7,9.4-3.7c2.7-2.7,4.2-6.6,4.2-10.5c0-3.9-1.5-7.8-4.2-10.5C214.7,205.2,211.7,203.5,207.3,203.5z M210,223.2
		c-0.6,1.4-1.5,2-2.7,2c-1.4,0-2.2-0.7-2.7-2c-0.7-1.5-0.7-3.3-0.7-5.7c0-2.8,0.1-4.4,0.7-5.7c0.6-1.3,1.5-2,2.7-2
		c1.2,0,2.1,0.6,2.7,2c0.6,1.3,0.7,2.9,0.7,5.7C210.7,220.3,210.6,222,210,223.2z"/>
	<polygon class="st1" points="248.7,204 240.5,204 236.9,210.6 233.5,204 222.3,204 230.1,216.8 221.1,231.1 229.3,231.1 
		234.4,222.5 239,231.1 250.3,231.1 241.3,216.3 	"/>
	<path class="st1" d="M268.9,203.5c-2,0-4,0.5-5.4,1.6c-1,0.7-1.8,1.8-2.4,2.9h-0.1V204h-9.2v35.8h9.9v-11.5h0.1
		c0.6,1,1.3,1.9,2.7,2.5c1.1,0.5,2.5,0.9,3.9,0.9c2.2,0,4.9-0.7,7.1-3.9c2.2-3.1,2.7-7,2.7-10.5c0-2.9-0.3-7-2.5-10.2
		C274.1,204.8,272.1,203.5,268.9,203.5z M267.4,222.9c-0.7,1.7-1.7,2.3-2.8,2.3c-1.4,0-2-1-2.3-1.4c-0.5-0.8-0.6-2-0.6-3.5v-5.9
		c0-1,0-2.4,0.9-3.3c0.5-0.5,1.2-0.8,1.9-0.8c1,0,2.1,0.5,2.7,2c0.5,1,0.7,2.4,0.7,5.3C268,220.2,267.8,221.8,267.4,222.9z"/>
	<polygon class="st1" points="326.3,213.4 320.8,213.4 320.8,204 310.9,204 310.9,231.1 320.8,231.1 320.8,220.5 326.3,220.5 
		326.3,231.1 336.2,231.1 336.2,204 326.3,204 	"/>
	<polygon class="st1" points="378.5,211.1 385.4,211.1 385.4,231.1 395.4,231.1 395.4,211.1 402.3,211.1 402.3,204 378.5,204 	"/>
	<path class="st1" d="M421.4,203.5c-2,0-4,0.5-5.4,1.6c-1,0.7-1.8,1.8-2.4,2.9h-0.1V204h-9.2v35.8h9.9v-11.5h0.1
		c0.6,1,1.3,1.9,2.7,2.5c1.1,0.5,2.5,0.9,3.9,0.9c2.2,0,4.9-0.7,7.1-3.9c2.2-3.1,2.7-7,2.7-10.5c0-2.9-0.3-7-2.5-10.2
		C426.5,204.8,424.5,203.5,421.4,203.5z M419.8,222.9c-0.7,1.7-1.7,2.3-2.8,2.3c-1.4,0-2-1-2.3-1.4c-0.5-0.8-0.6-2-0.6-3.5v-5.9
		c0-1,0-2.4,0.9-3.3c0.5-0.5,1.2-0.8,1.9-0.8c1,0,2.1,0.5,2.7,2c0.5,1,0.7,2.4,0.7,5.3C420.4,220.2,420.3,221.8,419.8,222.9z"/>
	<path class="st1" d="M450.4,204l-4.5,14.5l-4.2-14.5h-10.8l9.6,26.9l-0.1,0.5c0,0.5-0.4,0.8-0.7,1.1c-0.9,0.6-2.2,0.6-3.2,0.6
		c-1.5,0-2.6-0.1-4.1-0.4v7.6c0.5,0.1,2.5,0.4,4.9,0.4c2.1,0,4.5-0.2,6.7-2c2.1-1.7,2.9-3.8,3.7-5.9l9.9-28.8H450.4z"/>
	<path class="st1" d="M482.7,204h-20.3v1.8c0,9.2-0.5,14-2.6,18.3h-2.5v14.2h8.9v-7.1h10.5v7.1h8.9V224h-3V204z M472.8,224h-5
		c1.1-3.3,1.6-6.7,1.6-12.1v-0.8h3.4V224z"/>
	<polygon class="st3" points="181.2,233.9 176.6,223.4 180.9,233.5 	"/>
	<polygon class="st3" points="180.9,233.5 176.6,223.4 126.4,109.3 126,110 126,110 180.4,232.8 	"/>
	<path class="st1" d="M47.9,55.6c-0.5,0.3-1.1,0.8-1.8,1.2C46.7,56.4,47.3,56,47.9,55.6z"/>
	<path class="st1" d="M59.5,39.9c0.4-1.2,0.7-2.5,1-3.7C60.2,37.3,59.9,38.6,59.5,39.9z"/>
	<path class="st1" d="M54.2,49.7c0,0-0.3,0.5-2.3,2.5c-0.4,0.4-0.9,0.9-1.3,1.3c2.2-1.9,4.1-4.1,5.7-6.6
		C55.2,48.5,54.3,49.5,54.2,49.7L54.2,49.7z"/>
	<path class="st1" d="M41.6,58.9c-0.8,0.3-1.6,0.6-2.2,0.8C40.1,59.5,40.8,59.2,41.6,58.9z"/>
	<path class="st1" d="M29.6,29.3L29.6,29.3L29.6,29.3l0-0.1h31.3c0,0,0,0.1,0,0.3C60.4,13.1,47,0,30.5,0C13.7,0,0,13.7,0,30.5
		c0,15.9,12.2,29,27.7,30.4c-1.4-0.2-2.5-0.4-2.5-0.4L29.6,29.3z"/>
	<path class="st1" d="M35.1,60.6l-0.8,0.1c0.5-0.1,0.9-0.1,1.4-0.2C35.5,60.6,35.2,60.6,35.1,60.6L35.1,60.6z"/>
	<path class="st1" d="M31.6,61c0.8,0,1.5-0.1,2.3-0.2l0,0C33.5,60.8,32.6,60.9,31.6,61z"/>
	<polygon class="st1" points="29.6,29.2 29.6,29.2 29.6,29.2 	"/>
	<path class="st1" d="M56.6,46.3C56.6,46.3,56.6,46.3,56.6,46.3C56.6,46.3,56.6,46.3,56.6,46.3z"/>
	<polygon class="st1" points="48.9,54.8 48.9,54.8 29.6,29.3 29.7,29.6 	"/>
	<polygon class="st1" points="44.7,41.8 29.6,29.1 29.6,29.2 	"/>
	<polygon class="st3" points="104.6,130.1 111.2,139.1 104.6,130.1 	"/>
	<polygon class="st3" points="63.3,155 63.3,234 63.4,171.3 	"/>
	<polygon class="st3" points="87.6,107.1 98.3,85.9 126,31 87.6,107.1 100.1,124 	"/>
	<polygon class="st3" points="111.2,139.1 63.3,234 126,110 126,110 	"/>
	<polygon class="st1" points="57,235 57,234.9 56.7,232.6 	"/>
	<polygon class="st4" points="125.3,108.4 126,107.8 126,31 98.3,85.9 	"/>
	<polygon class="st4" points="126,108.1 126,107.8 125.3,108.4 125.4,108.5 	"/>
	<polygon class="st5" points="126,108.1 126.5,107.7 126.7,107.5 126.6,107.3 126,107.8 	"/>
	<polygon class="st5" points="126,31 126,107.8 126.6,107.3 126.7,107.5 182,31 	"/>
	<polygon class="st3" points="182,235.8 182,235 181.7,235 	"/>
	<polygon class="st3" points="126.7,107.6 127.5,107 127,108.1 176.6,223.4 181.2,233.9 182,235 182,31 126.7,107.5 	"/>
	<polygon class="st3" points="176.6,223.4 127,108.1 126.4,109.3 	"/>
	<polygon class="st3" points="126.7,107.6 126.7,107.5 126.5,107.7 	"/>
	<polygon class="st6" points="126,110 126,158.8 180.4,232.8 	"/>
	<polygon class="st7" points="180.9,233.5 181.1,233.9 180.9,233.5 180.4,232.8 181.2,234.8 126,158.8 126,235 181.7,235 
		181.2,233.9 	"/>
	<polygon class="st7" points="181.7,235 182,235 181.2,233.9 	"/>
	<polygon class="st7" points="180.4,232.8 126,158.8 181.2,234.8 	"/>
	<polygon class="st8" points="125.2,108.4 113.8,117.1 125.4,108.6 	"/>
	<polygon class="st8" points="113.8,117.1 125.2,108.4 98.3,85.9 87.6,107.1 100.1,124 101.7,126.1 	"/>
	<polygon class="st8" points="125.3,108.4 98.3,85.9 125.2,108.4 	"/>
	<polygon class="st8" points="125.4,108.6 125.4,108.5 125.3,108.4 125.2,108.4 	"/>
	<polygon class="st9" points="126,108.5 126,108.4 126,108.5 	"/>
	<polygon class="st3" points="126,108.5 126,109.1 126,110 126.4,109.3 126,108.5 	"/>
	<polygon class="st3" points="125.7,108.8 104.6,130.1 111.2,139.1 126,110 126,109.1 	"/>
	<polygon class="st3" points="126,109.1 126,108.5 125.7,108.8 	"/>
	<polygon class="st3" points="127,108.1 127.5,107 126.8,107.7 	"/>
	<polygon class="st3" points="126,108.5 126.4,109.3 127,108.1 126.8,107.7 	"/>
	<polygon class="st3" points="126,108.5 126,108.5 126,108.5 126,108.5 	"/>
	<polygon class="st3" points="104.6,130 104.6,130.1 125.7,108.8 125.7,108.8 	"/>
	<polygon class="st3" points="125.7,108.8 125.7,108.8 126,108.5 126,108.5 	"/>
	<polygon class="st3" points="126.8,107.7 126.8,107.7 126,108.5 126,108.5 	"/>
	<polygon class="st3" points="126.8,107.7 127.5,107 126.8,107.7 	"/>
	<polygon class="st10" points="87.5,107 63.3,155 87.6,107.1 	"/>
	<polygon class="st10" points="101.7,126.1 100.1,124 87.6,107.1 63.3,155 101.6,126.1 	"/>
	<polygon class="st10" points="100.1,124 101.7,126.1 101.7,126.1 	"/>
	<polygon class="st10" points="126.7,107.6 126.5,107.7 126,108.1 125.4,108.5 125.4,108.6 113.8,117.1 101.7,126.1 101.7,126.1 
		101.7,126.1 101.7,126.1 101.6,126.1 101.7,126.2 101.8,126.3 104.6,130.1 104.6,130.1 104.6,130 125.7,108.8 126,108.5 126,108.4 
		126,108.5 126.8,107.7 127.5,107 	"/>
	<polygon class="st10" points="101.7,126.1 101.7,126.1 101.7,126.1 101.7,126.1 	"/>
	<polygon class="st11" points="101.8,126.3 101.7,126.2 101.6,126.1 63.3,155 63.4,171.3 104.6,130.1 	"/>
	<polygon class="st12" points="104.6,130.1 63.4,171.3 63.3,234 111.2,139.1 	"/>
	<polygon class="st13" points="50.2,184.5 1,235 57,235 56.7,232.6 	"/>
	<polygon class="st14" points="57.1,194.2 57.1,194.3 57,194 54.4,180.7 50.3,184.3 56.7,232.6 57,234.9 57,234.9 57.1,194.3 	"/>
	<polygon class="st14" points="56.7,232.6 50.3,184.3 50.2,184.5 	"/>
	<path class="st15" d="M35.2,69.5L35,67.8c0,0-3-0.5-5-0.5c-2.3,0-5.3,0.2-5.3,0.2l-0.3,1.9L1,235l49.2-50.5L35.2,69.5z"/>
	<polygon class="st15" points="50.2,184.5 1,235 50.2,184.5 	"/>
	<path class="st16" d="M10.4,74.3c-8.3,8.3-9.5,17.2-9.5,17.2L1,235L24.4,69.4l0.3-1.9C24.7,67.5,15.6,69.1,10.4,74.3z"/>
	<polygon class="st16" points="50.3,184.3 50.2,184.5 50.2,184.5 50.3,184.3 	"/>
	<polygon class="st16" points="55,180.1 36.8,69.8 36.5,68.2 35,67.8 35.2,69.5 50.2,184.5 50.3,184.3 50.3,184.3 50.3,184.3 
		54.4,180.7 54.4,180.7 54.5,180.6 	"/>
	<polygon class="st16" points="50.2,184.5 50.3,184.3 50.3,184.3 	"/>
	<path class="st17" d="M57,131.4l0,0.6L41.2,71.1l-0.3-1.3c0,0-0.7-0.4-2.2-0.9c-1.1-0.4-2.2-0.7-2.2-0.7l0.3,1.7L55,180.1l2-2.1
		v-46.5L57,131.4z"/>
	<path class="st18" d="M51.7,78.9c-3.9-5.6-10.9-9-10.9-9l0.3,1.3L57,131.4l0.1-8.1L57.2,94C57.2,94,56.9,86.3,51.7,78.9z"/>
	<polygon class="st18" points="41.2,71.1 40.9,69.8 41.2,71.1 	"/>
	<polygon class="st18" points="57,131.4 41.2,71.1 41.2,71.1 57,131.9 	"/>
	<path class="st4" d="M60.5,36.2c0.7-3.7,0.6-6.1,0.5-6.8c0,0.4,0,0.7,0,1.1C61,32.4,60.8,34.3,60.5,36.2z"/>
	<path class="st4" d="M59.3,40.5c0.1-0.2,0.1-0.4,0.2-0.6c-0.7,2.3-1.7,4.4-2.9,6.4C57.6,44.8,58.6,42.8,59.3,40.5z"/>
	<path class="st4" d="M56.6,46.3c-0.1,0.2-0.2,0.4-0.4,0.6C56.3,46.7,56.5,46.5,56.6,46.3z"/>
	<path class="st4" d="M61,30.5c0-0.4,0-0.7,0-1.1c0-0.2,0-0.3,0-0.3H29.6l15.1,12.7l9.4,7.9c0.1-0.2,1-1.2,2.1-2.8
		c0.1-0.2,0.3-0.4,0.4-0.6c0,0,0,0,0,0c1.2-2,2.2-4.1,2.9-6.4c0.4-1.4,0.7-2.6,1-3.7C60.8,34.3,61,32.4,61,30.5z"/>
	<path class="st8" d="M48.9,54.9c0,0,0.8-0.6,1.6-1.4C50,54,49.5,54.4,48.9,54.9L48.9,54.9z"/>
	<path class="st8" d="M51.9,52.2c2-2.1,2.3-2.5,2.3-2.5l0,0c0,0,0,0,0,0l-9.4-7.9L29.6,29.2l0,0l19.2,25.6c0.6-0.4,1.1-0.9,1.7-1.4
		C51,53.1,51.4,52.7,51.9,52.2z"/>
	<polygon class="st8" points="29.6,29.2 29.6,29.2 29.6,29.2 	"/>
	<path class="st8" d="M54.2,49.7l-9.4-7.9L54.2,49.7C54.1,49.7,54.1,49.7,54.2,49.7z"/>
	<path class="st18" d="M43.4,58.2c0.8-0.4,1.8-0.9,2.7-1.5c-1.4,0.8-2.9,1.6-4.5,2.2C42.2,58.7,42.8,58.5,43.4,58.2z"/>
	<path class="st18" d="M47.9,55.6c0.6-0.4,1-0.7,1-0.7l0,0C48.6,55.1,48.2,55.3,47.9,55.6z"/>
	<path class="st18" d="M37.9,60.1c0,0,0.6-0.2,1.4-0.4C38.9,59.8,38.4,60,37.9,60.1L37.9,60.1z"/>
	<path class="st18" d="M29.7,29.6L29.7,29.6l8.2,30.5c0.5-0.1,1-0.3,1.4-0.4c0.6-0.2,1.4-0.5,2.2-0.8c1.6-0.6,3.1-1.3,4.5-2.2
		c0.7-0.4,1.3-0.8,1.8-1.2c0.3-0.2,0.7-0.5,1-0.7L29.7,29.6z"/>
	<path class="st17" d="M35.7,60.6c0.2,0,0.4-0.1,0.6-0.1c0.8-0.1,1.6-0.3,1.6-0.3l0,0C37.2,60.3,36.4,60.4,35.7,60.6z"/>
	<polygon class="st17" points="29.6,29.2 29.6,29.3 29.6,29.2 	"/>
	<path class="st17" d="M29.7,29.7l5.4,30.9c0.2,0,0.4,0,0.6-0.1c0.8-0.1,1.5-0.3,2.2-0.5L29.7,29.7z"/>
	<polygon class="st17" points="37.9,60.1 37.9,60.1 37.9,60.1 	"/>
	<polygon class="st17" points="37.9,60.1 37.9,60.1 29.7,29.6 29.7,29.7 	"/>
	<path class="st15" d="M27.7,60.9c0.6,0.1,1.2,0.1,1.9,0.1c0.7,0,1.4,0,2,0c-0.4,0-0.7,0-1.1,0C29.6,61,28.6,61,27.7,60.9z"/>
	<polygon class="st15" points="29.6,29.2 29.6,29.2 29.7,29.5 29.6,29.2 	"/>
	<path class="st15" d="M29.8,30.5l-0.2-1.2l-4.4,31.2c0,0,1.1,0.2,2.5,0.4c0.9,0.1,1.9,0.1,2.8,0.1c0.4,0,0.7,0,1.1,0
		c1,0,1.8-0.1,2.3-0.2L29.8,30.5z"/>
	<polygon class="st15" points="29.6,29.2 29.6,29.1 29.6,29.2 	"/>
	<polygon class="st15" points="29.6,29.2 29.6,29.2 29.6,29.2 29.6,29.2 	"/>
	<polygon class="st15" points="29.6,29.2 29.6,29.3 29.8,30.5 29.7,29.5 	"/>
	<polygon class="st12" points="57,193.8 57.1,194.2 57,180.6 	"/>
	<polygon class="st12" points="57,194 57.1,194.3 57.1,194.2 57,193.8 	"/>
	<polygon class="st12" points="54.4,180.7 57,194 57,193.8 54.5,180.6 	"/>
	<polygon class="st12" points="54.5,180.6 54.4,180.7 54.4,180.7 54.5,180.6 	"/>
	<polygon class="st12" points="57,178 55,180.1 54.5,180.6 54.5,180.6 57,193.8 57,180.6 	"/>
	<path class="st16" d="M33.9,60.8l0.4-0.1C34.2,60.8,34.1,60.8,33.9,60.8L33.9,60.8z"/>
	<polygon class="st16" points="29.6,29.2 29.6,29.1 29.6,29.2 	"/>
	<polygon class="st16" points="29.7,29.5 29.7,29.6 29.7,29.6 29.6,29.3 29.6,29.2 	"/>
	<polygon class="st16" points="29.6,29.2 29.6,29.3 29.6,29.2 29.6,29.2 	"/>
	<polygon class="st16" points="29.7,29.6 29.7,29.6 29.7,29.6 	"/>
	<polygon class="st16" points="29.7,29.6 29.7,29.5 29.7,29.6 	"/>
	<polygon class="st16" points="29.7,29.6 29.7,29.6 29.7,29.7 29.7,29.6 29.7,29.6 	"/>
	<polygon class="st16" points="29.7,29.5 29.7,29.5 29.6,29.2 29.6,29.2 	"/>
	<polygon class="st16" points="29.6,29.2 29.6,29.1 29.6,29.2 	"/>
	<path class="st16" d="M35.1,60.6l-5.4-30.9l0-0.1l0.3,1.8l-0.2-0.9l4.1,30.3l0,0c0.1,0,0.3,0,0.4-0.1L35.1,60.6L35.1,60.6z"/>
	<polygon class="st16" points="29.6,29.2 29.6,29.2 29.6,29.2 29.6,29.2 	"/>
	<polygon class="st16" points="29.7,29.6 29.7,29.6 29.7,29.5 29.7,29.5 29.8,30.5 30,31.4 29.7,29.6 	"/>
	<polygon class="st16" points="29.7,29.6 29.7,29.6 29.7,29.6 	"/>
	<path class="st2" d="M510.9,122.3c6,0,9.1-3.6,10.7-6.1h0.1v5.4h3.5l-0.1-24l-3.4,0h-0.1c-3.3-5.4-8.4-5.7-10.8-5.7
		c-9.8,0-14.6,7.1-14.6,14C496.2,114.9,502.7,122.3,510.9,122.3z M510.8,95.4c6.2,0,10.9,5.3,10.9,11.8c0,6.4-4.8,11.5-10.8,11.5
		c-5.9,0-11-4.9-11-11.5C499.9,100.5,504.8,95.4,510.8,95.4z"/>
	<path class="st1" d="M515.1,225.8v-10.6c0-2.2,0-4.4-1-6.4c-2.1-4.2-6.9-4.7-11.1-4.7c-2.9,0-6.4,0.2-9.2,2.2c-1.4,1-3.2,3.8-4,7.3
		l9,0c0.1-0.7,0-3.5,3.9-2.9c1.3,0.2,2.1,0.4,2.5,0.8c0.6,0.7,0.6,1.8,0.6,2.3v0.4l-1.9,0.2c-3.8,0.3-9.2,1.1-12.1,3.6
		c-2,1.6-2.9,4.1-2.9,6.5c0,3.6,2.4,7.9,9,7.9c5.1,0,7.4-2.7,8.4-4.3c0,1.9,0.1,3.1,0.3,3.8l9.3,0
		C514.9,229.1,515.1,227.4,515.1,225.8z M505.6,220.6c0,2-0.3,5.3-4,5.3c-1.8,0-2.8-1-2.8-2.4c0-0.8,0.4-2,1.4-2.8
		c0.4-0.3,1.4-1,3.8-1.4l1.6-0.3V220.6z"/>
	<path class="st1" d="M365,224.9v-10.6c0-2.2,0-4.4-1-6.4c-2.1-4.2-6.9-4.7-11.1-4.7c-2.9,0-6.4,0.2-9.2,2.2c-1.4,1-3.2,3.8-4,7.3
		l9,0c0.1-0.7,0-3.5,3.9-2.9c1.3,0.2,2.1,0.4,2.5,0.8c0.6,0.7,0.6,1.8,0.6,2.3v0.4l-1.9,0.2c-3.8,0.3-9.2,1.1-12.1,3.6
		c-2,1.6-2.9,4.1-2.9,6.5c0,3.6,2.4,7.9,9,7.9c5.1,0,7.4-2.7,8.4-4.3c0,1.9,0.1,3.1,0.3,3.8l9.3,0C364.7,228.2,365,226.5,365,224.9z
		 M355.4,219.7c0,2-0.3,5.3-4,5.3c-1.8,0-2.8-1-2.8-2.4c0-0.8,0.4-2,1.4-2.8c0.4-0.3,1.4-1,3.8-1.4l1.6-0.3V219.7z"/>
	<path class="st1" d="M307.3,224.9v-10.6c0-2.2,0-4.4-1-6.4c-2.1-4.2-6.9-4.7-11.1-4.7c-2.9,0-6.4,0.2-9.2,2.2c-1.4,1-3.2,3.8-4,7.3
		l9,0c0.1-0.7,0-3.5,3.9-2.9c1.3,0.2,2.1,0.4,2.5,0.8c0.6,0.7,0.6,1.8,0.6,2.3v0.4l-1.9,0.2c-3.8,0.3-9.2,1.1-12.1,3.6
		c-2,1.6-2.9,4.1-2.9,6.5c0,3.6,2.4,7.9,9,7.9c5.1,0,7.4-2.7,8.4-4.3c0,1.9,0.1,3.1,0.3,3.8l9.3,0
		C307,228.2,307.3,226.4,307.3,224.9z M297.8,219.7c0,2-0.3,5.3-4,5.3c-1.8,0-2.8-1-2.8-2.4c0-0.8,0.4-2,1.4-2.8
		c0.4-0.3,1.4-1,3.8-1.4l1.6-0.3V219.7z"/>
</g>
</svg>
