<?xml version="1.0" encoding="iso-8859-1"?>
<!-- Generator: Adobe Illustrator 19.0.0, SVG Export Plug-In . SVG Version: 6.00 Build 0)  -->
<svg version="1.1" id="Layer_1" xmlns="http://www.w3.org/2000/svg" xmlns:xlink="http://www.w3.org/1999/xlink" x="0px" y="0px"
	 viewBox="0 0 509.287 509.287" style="enable-background:new 0 0 509.287 509.287;" xml:space="preserve">
<circle style="fill:#76D95B;" cx="254.644" cy="254.644" r="254.644"/>
<path style="fill:#393D47;" d="M503.862,112.572l-8.816-14.58H14.241l-8.816,14.58v305.505h222.771
	c4.747,9.833,14.919,16.954,26.448,16.954c11.528,0,22.04-6.781,26.448-16.954h222.771V112.572z"/>
<path style="fill:#4F5565;" d="M495.046,98.331H254.644l0,0H14.241v310.93h221.754c1.695,8.816,9.494,15.597,18.988,15.597
	c9.494,0,17.293-6.781,18.988-15.597h221.754V98.331H495.046z"/>
<path style="fill:#FCFCFD;" d="M254.644,392.646c-71.205-20.683-146.479-20.683-217.685,0c0-101.383,0-202.426,0-303.809
	c71.205-20.683,146.479-20.683,217.685,0C254.644,189.881,254.644,291.264,254.644,392.646z"/>
<g>
	<path style="fill:#F1F3F7;" d="M214.972,146.479c-45.097-13.224-93.245-13.224-138.342,0c0-4.747,0-9.833,0-14.58
		c45.097-13.224,93.245-13.224,138.342,0C214.972,136.646,214.972,141.732,214.972,146.479z"/>
	<path style="fill:#F1F3F7;" d="M214.972,197.34c-45.097-13.224-93.245-13.224-138.342,0c0-4.747,0-9.833,0-14.58
		c45.097-13.224,93.245-13.224,138.342,0C214.972,187.507,214.972,192.254,214.972,197.34z"/>
	<path style="fill:#F1F3F7;" d="M214.972,248.201c-45.097-13.224-93.245-13.224-138.342,0c0-4.747,0-9.833,0-14.58
		c45.097-13.224,93.245-13.224,138.342,0C214.972,238.368,214.972,243.115,214.972,248.201z"/>
	<path style="fill:#F1F3F7;" d="M214.972,298.723c-45.097-13.224-93.245-13.224-138.342,0c0-4.747,0-9.833,0-14.58
		c45.097-13.224,93.245-13.224,138.342,0C214.972,288.89,214.972,293.976,214.972,298.723z"/>
	<path style="fill:#F1F3F7;" d="M214.972,349.584c-45.097-13.224-93.245-13.224-138.342,0c0-4.747,0-9.833,0-14.58
		c45.097-13.224,93.245-13.224,138.342,0C214.972,339.751,214.972,344.498,214.972,349.584z"/>
	<path style="fill:#F1F3F7;" d="M472.328,392.646c-71.205-20.683-146.479-20.683-217.685,0c0-101.383,0-202.426,0-303.809
		c71.205-20.683,146.479-20.683,217.685,0C472.328,189.881,472.328,291.264,472.328,392.646z"/>
</g>
<g>
	<path style="fill:#DEDEDF;" d="M432.657,146.479c-45.097-13.224-93.245-13.224-138.342,0c0-4.747,0-9.833,0-14.58
		c45.097-13.224,93.245-13.224,138.342,0C432.657,136.646,432.657,141.732,432.657,146.479z"/>
	<path style="fill:#DEDEDF;" d="M432.657,197.34c-45.097-13.224-93.245-13.224-138.342,0c0-4.747,0-9.833,0-14.58
		c45.097-13.224,93.245-13.224,138.342,0C432.657,187.507,432.657,192.254,432.657,197.34z"/>
	<path style="fill:#DEDEDF;" d="M432.657,248.201c-45.097-13.224-93.245-13.224-138.342,0c0-4.747,0-9.833,0-14.58
		c45.097-13.224,93.245-13.224,138.342,0C432.657,238.368,432.657,243.115,432.657,248.201z"/>
	<path style="fill:#DEDEDF;" d="M432.657,298.723c-45.097-13.224-93.245-13.224-138.342,0c0-4.747,0-9.833,0-14.58
		c45.097-13.224,93.245-13.224,138.342,0C432.657,288.89,432.657,293.976,432.657,298.723z"/>
	<path style="fill:#DEDEDF;" d="M432.657,349.584c-45.097-13.224-93.245-13.224-138.342,0c0-4.747,0-9.833,0-14.58
		c45.097-13.224,93.245-13.224,138.342,0C432.657,339.751,432.657,344.498,432.657,349.584z"/>
</g>
<g>
</g>
<g>
</g>
<g>
</g>
<g>
</g>
<g>
</g>
<g>
</g>
<g>
</g>
<g>
</g>
<g>
</g>
<g>
</g>
<g>
</g>
<g>
</g>
<g>
</g>
<g>
</g>
<g>
</g>
</svg>
