<?xml version="1.0" encoding="utf-8"?>
<!-- Generator: Adobe Illustrator 20.1.0, SVG Export Plug-In . SVG Version: 6.00 Build 0)  -->
<svg version="1.1" id="Слой_1" xmlns="http://www.w3.org/2000/svg" xmlns:xlink="http://www.w3.org/1999/xlink" x="0px" y="0px"
	 viewBox="0 0 203 80" style="enable-background:new 0 0 203 80;" xml:space="preserve">
<style type="text/css">
	.st0{fill:#1D1D1B;}
	.st1{fill-rule:evenodd;clip-rule:evenodd;fill:#ECECEC;}
	.st2{fill-rule:evenodd;clip-rule:evenodd;fill:url(#SVGID_1_);}
	.st3{fill-rule:evenodd;clip-rule:evenodd;fill:url(#SVGID_2_);}
	.st4{fill-rule:evenodd;clip-rule:evenodd;fill:url(#SVGID_3_);}
	.st5{fill-rule:evenodd;clip-rule:evenodd;fill:url(#SVGID_4_);}
</style>
<g>
	<g>
		<g>
			<path class="st0" d="M100.7,48.8V38c0-0.2,0-0.4-0.1-0.5c-0.1-0.2-0.2-0.3-0.4-0.4c-0.2-0.1-0.4-0.2-0.7-0.2h-8.9
				c-0.3,0-0.6,0.1-0.7,0.2c-0.2,0.1-0.3,0.3-0.4,0.4c-0.1,0.2-0.1,0.3-0.1,0.5v10.8c0,0.2,0,0.3,0.1,0.3c0.1,0.1,0.2,0.1,0.4,0.1
				h1.9c0.2,0,0.3,0,0.4-0.1c0.1-0.1,0.1-0.2,0.1-0.3v-9.6h5.6v9.6c0,0.2,0,0.3,0.1,0.3c0.1,0.1,0.2,0.1,0.4,0.1h1.9
				c0.2,0,0.3,0,0.4-0.1C100.7,49.1,100.7,49,100.7,48.8z"/>
			<path class="st0" d="M82.2,46.7c-1,0-1.8-0.2-2.5-0.5c-0.7-0.3-1.2-0.7-1.6-1.3c-0.4-0.5-0.7-1.2-0.8-1.9
				c-0.2-0.7-0.2-1.5-0.2-2.3c0-0.7,0.1-1.3,0.2-1.9c0.1-0.6,0.3-1.2,0.6-1.7c0.3-0.5,0.6-1,1-1.4c0.4-0.4,0.9-0.7,1.4-0.9
				c0.5-0.2,1.1-0.3,1.8-0.3c0.7,0,1.3,0.1,1.9,0.2c0.6,0.1,1.2,0.3,1.7,0.5c0.1,0.1,0.2,0.1,0.3,0.1c0.1,0,0.1,0,0.2-0.1
				c0-0.1,0.1-0.1,0.1-0.3l0.7-1.4c0.1-0.2,0.1-0.3,0.1-0.4c0-0.1,0-0.2-0.1-0.2c-0.1-0.1-0.1-0.1-0.2-0.1c-0.6-0.3-1.1-0.5-1.7-0.7
				c-0.6-0.1-1.1-0.3-1.6-0.3c-0.5-0.1-1.1-0.1-1.6-0.1c-1.2,0-2.3,0.2-3.3,0.7c-1,0.4-1.9,1-2.6,1.9c-0.7,0.8-1.3,1.8-1.7,2.9
				c-0.4,1.1-0.6,2.4-0.6,3.7c0,2.9,0.7,5.1,2,6.6c1.3,1.5,3.3,2.2,5.9,2.2c0.6,0,1.3,0,1.9-0.1c0.7-0.1,1.3-0.2,1.9-0.4
				c0.6-0.2,1.3-0.4,1.8-0.8c0.1-0.1,0.2-0.1,0.2-0.2c0-0.1,0.1-0.1,0.1-0.2c0-0.1-0.1-0.2-0.1-0.4l-0.7-1.4c0-0.1-0.1-0.2-0.2-0.3
				c-0.1-0.1-0.3,0-0.5,0.1c-0.4,0.1-0.8,0.3-1.2,0.4c-0.4,0.1-0.9,0.2-1.3,0.3C83.2,46.6,82.7,46.7,82.2,46.7z"/>
			<path class="st0" d="M108.1,38.9c0.5,0,1,0.1,1.4,0.2c0.4,0.2,0.6,0.4,0.8,0.6c0.2,0.3,0.3,0.6,0.4,1c0.1,0.4,0.1,0.8,0.1,1.2
				h-5.6c0-0.4,0.1-0.8,0.2-1.1c0.1-0.4,0.3-0.7,0.6-1c0.3-0.3,0.6-0.5,0.9-0.7C107.3,39,107.7,38.9,108.1,38.9L108.1,38.9z
				 M108.1,36.6c-0.9,0-1.6,0.1-2.4,0.4c-0.7,0.3-1.3,0.7-1.9,1.3c-0.5,0.6-0.9,1.2-1.2,2c-0.3,0.8-0.4,1.7-0.4,2.8
				c0,1.5,0.2,2.7,0.7,3.6c0.5,0.9,1.2,1.6,2.1,2.1c0.9,0.4,2,0.7,3.3,0.7c0.5,0,0.9,0,1.4-0.1c0.5-0.1,0.9-0.2,1.4-0.3
				c0.5-0.1,0.9-0.3,1.3-0.6c0.1-0.1,0.2-0.1,0.2-0.2c0-0.1,0-0.2,0-0.3l-0.7-1.3c0-0.1-0.1-0.2-0.2-0.2c-0.1,0-0.2,0-0.3,0.1
				c-0.4,0.2-0.8,0.3-1.3,0.4c-0.5,0.1-1,0.2-1.5,0.2c-0.6,0-1.2-0.1-1.7-0.3c-0.5-0.2-0.9-0.5-1.2-1c-0.3-0.5-0.5-1.1-0.5-1.9h6.5
				c0.4,0,0.7-0.1,1-0.2c0.3-0.1,0.5-0.3,0.7-0.6c0.2-0.3,0.3-0.7,0.3-1.3c0-1.1-0.2-2-0.6-2.8c-0.4-0.8-1-1.4-1.8-1.8
				C110.4,36.8,109.3,36.6,108.1,36.6z"/>
			<path class="st0" d="M126.4,47v-9.6c0-0.2,0-0.3-0.1-0.4c-0.1-0.1-0.2-0.1-0.4-0.1H124c-0.2,0-0.3,0-0.4,0.1
				c-0.1,0.1-0.1,0.2-0.1,0.4V47h-5.4v-9.7c0-0.1,0-0.2,0-0.3c0-0.1-0.1-0.1-0.1-0.1c-0.1,0-0.2,0-0.3,0h-1.8c-0.2,0-0.3,0-0.4,0.1
				c-0.1,0.1-0.1,0.2-0.1,0.4v10.5c0,0.5,0.1,0.8,0.3,1c0.2,0.2,0.5,0.4,1,0.4h8.6l0.1,3.3c0,0.1,0,0.2,0.1,0.2
				c0.1,0.1,0.1,0.1,0.2,0.1h1.8c0.1,0,0.2,0,0.2-0.1c0.1-0.1,0.1-0.1,0.1-0.2l0.3-4.6c0-0.1,0-0.3,0-0.4c0-0.1-0.1-0.2-0.2-0.3
				c-0.1-0.1-0.3-0.1-0.5-0.2L126.4,47z"/>
			<path class="st0" d="M135.3,47.2c-0.7,0-1.2-0.1-1.7-0.2c-0.4-0.1-0.8-0.4-1-0.7c-0.2-0.3-0.4-0.7-0.5-1.1
				c-0.1-0.5-0.1-1-0.1-1.6v-6.3c0-0.2,0-0.3-0.1-0.3c-0.1-0.1-0.2-0.1-0.4-0.1h-1.9c-0.2,0-0.3,0-0.4,0.1c-0.1,0.1-0.1,0.2-0.1,0.3
				v6.2c0,1.1,0.1,2,0.3,2.8c0.2,0.8,0.6,1.4,1,1.9c0.5,0.5,1.1,0.8,1.9,1c0.8,0.2,1.7,0.3,2.8,0.3c0.2,0,0.5,0,0.7,0
				c0.3,0,0.6,0,0.9,0c0.3,0,0.6,0,0.9-0.1c0.3,0,0.5-0.1,0.7-0.1c0.6-0.1,1-0.3,1.3-0.6c0.3-0.3,0.4-0.8,0.4-1.3V37.3
				c0-0.2,0-0.3-0.1-0.3c-0.1-0.1-0.2-0.1-0.4-0.1h-1.9c-0.2,0-0.3,0-0.4,0.1c-0.1,0.1-0.1,0.2-0.1,0.3V47c-0.4,0.1-0.8,0.1-1.2,0.1
				C135.7,47.2,135.5,47.2,135.3,47.2z"/>
			<path class="st0" d="M152.8,47.9v-7c0-0.9-0.2-1.7-0.5-2.3c-0.4-0.6-0.9-1.1-1.6-1.4c-0.7-0.3-1.7-0.5-2.8-0.5
				c-0.5,0-1,0-1.5,0.1c-0.5,0-1,0.1-1.6,0.2c-0.5,0.1-1,0.2-1.5,0.4c-0.2,0.1-0.3,0.2-0.2,0.5l0.3,1.3c0,0.1,0.1,0.2,0.2,0.3
				c0.1,0,0.2,0,0.4,0c0.3-0.1,0.6-0.2,1-0.2c0.4-0.1,0.8-0.1,1.2-0.2c0.4,0,0.8-0.1,1.2-0.1c0.5,0,0.9,0.1,1.3,0.2
				c0.3,0.1,0.6,0.2,0.8,0.4c0.2,0.2,0.3,0.4,0.4,0.7c0.1,0.3,0.1,0.5,0.1,0.8v0.4h-2.7c-1,0-1.8,0.1-2.5,0.3
				c-0.7,0.2-1.2,0.5-1.7,0.9c-0.4,0.4-0.7,0.8-0.9,1.3c-0.2,0.5-0.3,1-0.3,1.6c0,0.5,0.1,1,0.2,1.5c0.2,0.5,0.5,0.9,0.9,1.2
				c0.4,0.4,1,0.6,1.7,0.8c0.7,0.2,1.6,0.3,2.7,0.3c0.5,0,1.1,0,1.7-0.1c0.6,0,1.2-0.1,1.7-0.3c0.6-0.1,1.1-0.3,1.6-0.5
				c0.2-0.1,0.3-0.2,0.4-0.3C152.8,48.2,152.8,48.1,152.8,47.9L152.8,47.9z M149.9,43.4v3.5c-0.2,0.1-0.4,0.1-0.7,0.2
				c-0.2,0.1-0.5,0.1-0.7,0.1c-0.2,0-0.5,0-0.7,0.1c-0.2,0-0.4,0-0.5,0c-0.5,0-1-0.1-1.4-0.2c-0.4-0.1-0.7-0.3-0.9-0.6
				c-0.2-0.3-0.3-0.6-0.3-1.1c0-0.5,0.1-0.8,0.3-1.1c0.2-0.3,0.4-0.5,0.7-0.6c0.3-0.1,0.6-0.2,0.9-0.3c0.3,0,0.6-0.1,0.9-0.1H149.9z
				"/>
			<path class="st0" d="M165.2,36.9h-6.4c-0.4,0-0.8,0.1-1,0.3c-0.2,0.2-0.4,0.5-0.4,1l-0.2,2.5c-0.1,1.1-0.2,1.9-0.2,2.7
				c-0.1,0.7-0.2,1.3-0.3,1.8c-0.1,0.5-0.3,0.9-0.4,1.1c-0.2,0.3-0.4,0.5-0.6,0.7c-0.2,0.2-0.5,0.3-0.8,0.5
				c-0.1,0.1-0.2,0.1-0.3,0.2c-0.1,0.1-0.1,0.1-0.1,0.2c0,0.1,0,0.2,0.1,0.3l0.5,1.3c0,0.1,0.1,0.2,0.2,0.3c0.1,0,0.3,0,0.5-0.1
				c0.7-0.2,1.2-0.4,1.7-0.7c0.5-0.3,0.8-0.7,1.1-1.1c0.3-0.4,0.5-1,0.7-1.6c0.2-0.6,0.3-1.4,0.4-2.3c0.1-0.9,0.2-1.9,0.3-3.1
				l0.1-1.5h3.8v9.6c0,0.2,0,0.3,0.1,0.3c0.1,0.1,0.2,0.1,0.4,0.1h1.8c0.2,0,0.3,0,0.4-0.1c0.1-0.1,0.1-0.2,0.1-0.3V38.2
				c0-0.3,0-0.6-0.1-0.8c-0.1-0.2-0.2-0.3-0.4-0.4C165.8,36.9,165.5,36.9,165.2,36.9z"/>
			<path class="st0" d="M174.4,47.2c-0.7,0-1.2-0.1-1.7-0.2c-0.4-0.1-0.8-0.4-1-0.7c-0.2-0.3-0.4-0.7-0.5-1.1
				c-0.1-0.5-0.1-1-0.1-1.6v-6.3c0-0.2,0-0.3-0.1-0.3c-0.1-0.1-0.2-0.1-0.4-0.1h-1.9c-0.2,0-0.3,0-0.4,0.1c-0.1,0.1-0.1,0.2-0.1,0.3
				v6.2c0,1.1,0.1,2,0.3,2.8c0.2,0.8,0.6,1.4,1,1.9c0.5,0.5,1.1,0.8,1.9,1c0.8,0.2,1.7,0.3,2.8,0.3c0.2,0,0.5,0,0.7,0
				c0.3,0,0.6,0,0.9,0c0.3,0,0.6,0,0.9-0.1c0.3,0,0.5-0.1,0.7-0.1c0.6-0.1,1-0.3,1.3-0.6c0.3-0.3,0.4-0.8,0.4-1.3V37.3
				c0-0.2,0-0.3-0.1-0.3c-0.1-0.1-0.2-0.1-0.4-0.1h-1.9c-0.2,0-0.3,0-0.4,0.1c-0.1,0.1-0.1,0.2-0.1,0.3V47c-0.4,0.1-0.8,0.1-1.2,0.1
				C174.9,47.2,174.6,47.2,174.4,47.2z"/>
			<path class="st0" d="M186.8,47.1c-0.6,0-1.1-0.1-1.6-0.3c-0.4-0.2-0.7-0.5-1-0.8c-0.2-0.4-0.4-0.8-0.5-1.3
				c-0.1-0.5-0.1-1-0.1-1.5c0-0.5,0.1-1.1,0.2-1.5c0.1-0.5,0.3-0.9,0.6-1.3c0.2-0.4,0.6-0.7,1-0.9c0.4-0.2,0.9-0.3,1.4-0.3
				c0.5,0,0.9,0.1,1.4,0.2c0.4,0.1,0.8,0.2,1.2,0.4c0.2,0.1,0.3,0.1,0.4,0.1c0.1,0,0.2-0.1,0.2-0.2l0.6-1.4c0.1-0.1,0.1-0.3,0.1-0.3
				c0-0.1-0.1-0.2-0.3-0.2c-0.6-0.3-1.1-0.5-1.8-0.6c-0.6-0.1-1.3-0.2-2-0.2c-0.9,0-1.7,0.2-2.5,0.5c-0.7,0.3-1.3,0.7-1.9,1.3
				c-0.5,0.6-0.9,1.3-1.2,2.1c-0.3,0.8-0.4,1.7-0.4,2.7c0,1.4,0.2,2.6,0.7,3.5c0.4,0.9,1.1,1.6,1.9,2.1c0.8,0.5,1.9,0.7,3.1,0.7
				c0.5,0,0.9,0,1.4-0.1c0.5,0,1-0.1,1.5-0.3c0.5-0.1,1-0.3,1.4-0.6c0.1-0.1,0.2-0.2,0.2-0.3c0-0.1,0-0.2-0.1-0.3l-0.6-1.4
				c0-0.1-0.1-0.2-0.2-0.2c-0.1,0-0.2,0-0.4,0.1c-0.2,0.1-0.5,0.2-0.8,0.3c-0.3,0.1-0.6,0.2-1,0.2C187.5,47,187.2,47.1,186.8,47.1z"
				/>
			<path class="st0" d="M198.8,39.2h3.7c0.2,0,0.3,0,0.4-0.1c0.1-0.1,0.1-0.2,0.1-0.3v-1.3c0-0.2,0-0.3-0.1-0.4
				c-0.1-0.1-0.2-0.1-0.4-0.1h-10.1c-0.2,0-0.3,0-0.4,0.1c-0.1,0.1-0.1,0.2-0.1,0.4v1.3c0,0.2,0,0.3,0.1,0.3
				c0.1,0.1,0.2,0.1,0.4,0.1h3.6v9.6c0,0.2,0,0.3,0.1,0.4c0.1,0.1,0.2,0.1,0.4,0.1h1.8c0.2,0,0.3,0,0.4-0.1c0.1-0.1,0.1-0.2,0.1-0.4
				V39.2z"/>
		</g>
		<g>
			<path class="st0" d="M78.8,23.9l-0.3,0v-5.3c0-0.1,0-0.1,0-0.1c0,0-0.1,0-0.1,0h-0.5c0,0-0.1,0-0.1,0c0,0,0,0.1,0,0.1v5.3h-3.1
				v-5.3c0-0.1,0-0.1,0-0.1c0,0-0.1,0-0.1,0h-0.5c0,0-0.1,0-0.1,0c0,0,0,0.1,0,0.1v5.5c0,0.2,0,0.3,0.1,0.4c0.1,0.1,0.2,0.1,0.4,0.1
				h4l0,1.3c0,0,0,0.1,0,0.1c0,0,0,0,0.1,0h0.4c0,0,0.1,0,0.1,0c0,0,0-0.1,0-0.1l0.1-1.7c0,0,0-0.1,0-0.1c0,0,0-0.1-0.1-0.1
				C79,24,78.9,23.9,78.8,23.9L78.8,23.9z M81.6,20c-0.3,0-0.6,0.1-0.8,0.2c-0.2,0.1-0.5,0.3-0.6,0.5c-0.2,0.2-0.3,0.5-0.4,0.8
				c-0.1,0.3-0.2,0.6-0.2,1c0,0.5,0.1,1,0.3,1.3c0.2,0.4,0.4,0.6,0.7,0.8c0.3,0.2,0.7,0.3,1.1,0.2c0.2,0,0.3,0,0.5,0
				c0.2,0,0.3-0.1,0.5-0.1c0.2,0,0.3-0.1,0.4-0.2c0,0,0.1,0,0.1-0.1c0,0,0-0.1,0-0.1l-0.2-0.4c0,0,0-0.1-0.1-0.1c0,0-0.1,0-0.1,0
				c-0.1,0-0.2,0.1-0.3,0.1c-0.1,0-0.2,0.1-0.4,0.1c-0.1,0-0.3,0-0.4,0c-0.2,0-0.4,0-0.5-0.1c-0.2-0.1-0.3-0.1-0.4-0.3
				c-0.1-0.1-0.2-0.3-0.3-0.5c-0.1-0.2-0.1-0.4-0.1-0.7h2.5c0.1,0,0.2,0,0.3-0.1c0.1,0,0.2-0.1,0.2-0.2c0.1-0.1,0.1-0.2,0.1-0.4
				c0-0.3,0-0.6-0.1-0.8c-0.1-0.2-0.2-0.4-0.3-0.6c-0.2-0.2-0.4-0.3-0.6-0.4C82.2,20,81.9,20,81.6,20L81.6,20z M82.8,22h-2.4
				c0-0.2,0-0.4,0.1-0.5c0.1-0.2,0.1-0.3,0.2-0.4c0.1-0.1,0.2-0.2,0.4-0.3c0.1-0.1,0.3-0.1,0.5-0.1c0.2,0,0.4,0,0.6,0.1
				c0.2,0.1,0.3,0.2,0.4,0.3c0.1,0.1,0.2,0.3,0.2,0.4C82.8,21.6,82.8,21.8,82.8,22L82.8,22z M85.1,24.5v-2h2.3v2c0,0.1,0,0.1,0,0.1
				c0,0,0.1,0,0.1,0h0.4c0.1,0,0.1,0,0.1,0c0,0,0-0.1,0-0.1v-4.3c0-0.1,0-0.1,0-0.1c0,0-0.1,0-0.1,0h-0.4c-0.1,0-0.1,0-0.1,0
				c0,0,0,0.1,0,0.1v1.7h-2.3v-1.7c0-0.1,0-0.1,0-0.1c0,0-0.1,0-0.1,0h-0.4c-0.1,0-0.1,0-0.1,0c0,0,0,0.1,0,0.1v4.3
				c0,0.1,0,0.1,0,0.1c0,0,0.1,0,0.1,0h0.4c0.1,0,0.1,0,0.1,0C85,24.6,85.1,24.6,85.1,24.5L85.1,24.5z M90.8,24.5v-3.8h1.4
				c0.1,0,0.1,0,0.1,0c0,0,0-0.1,0-0.1v-0.3c0-0.1,0-0.1,0-0.1c0,0-0.1,0-0.1,0h-3.5c-0.1,0-0.1,0-0.1,0c0,0,0,0.1,0,0.1v0.3
				c0,0,0,0.1,0,0.1c0,0,0.1,0,0.1,0h1.4v3.8c0,0.1,0,0.1,0,0.1c0,0,0.1,0,0.1,0h0.4c0.1,0,0.1,0,0.1,0
				C90.8,24.6,90.8,24.6,90.8,24.5L90.8,24.5z M96.9,22.3c0-0.3,0-0.7-0.1-1c-0.1-0.3-0.2-0.5-0.4-0.8c-0.2-0.2-0.4-0.4-0.6-0.5
				C95.5,20,95.2,20,94.8,20c-0.2,0-0.4,0-0.6,0c-0.2,0-0.4,0.1-0.6,0.1c-0.2,0-0.4,0.1-0.6,0.2c0,0-0.1,0-0.1,0.1c0,0,0,0.1,0,0.1
				v5.9c0,0.1,0,0.1,0,0.1c0,0,0.1,0,0.1,0h0.5c0,0,0.1,0,0.1,0c0,0,0,0,0-0.1v-1.7c0.2,0.1,0.4,0.1,0.6,0.1c0.2,0,0.4,0,0.5,0
				c0.3,0,0.6-0.1,0.9-0.2c0.3-0.1,0.5-0.3,0.6-0.5c0.2-0.2,0.3-0.5,0.4-0.8C96.8,23,96.9,22.7,96.9,22.3L96.9,22.3z M96.1,22.3
				c0,0.4-0.1,0.8-0.2,1c-0.1,0.3-0.3,0.4-0.5,0.6c-0.2,0.1-0.4,0.2-0.7,0.2c-0.1,0-0.2,0-0.3,0c-0.1,0-0.2,0-0.3,0
				c-0.1,0-0.3-0.1-0.4-0.1v-3.2c0.1,0,0.2-0.1,0.3-0.1c0.1,0,0.2,0,0.4-0.1c0.1,0,0.2,0,0.3,0c0.3,0,0.5,0.1,0.7,0.2
				c0.2,0.1,0.4,0.3,0.5,0.5C96,21.6,96.1,21.9,96.1,22.3z"/>
			<path class="st0" d="M100,24l-0.2,0c-0.1,0-0.1,0-0.2,0.1c0,0-0.1,0.1-0.1,0.1c0,0,0,0.1,0,0.1l0.1,1.6c0,0,0,0.1,0,0.1
				c0,0,0,0,0.1,0h0.5c0,0,0,0,0.1,0c0,0,0,0,0-0.1l0.1-1.3h3.3l0.1,1.3c0,0,0,0.1,0,0.1c0,0,0,0,0.1,0h0.5c0,0,0.1,0,0.1,0
				c0,0,0,0,0-0.1l0.1-1.6c0,0,0-0.1,0-0.1c0,0,0-0.1-0.1-0.1c0,0-0.1-0.1-0.2-0.1l-0.3,0v-3.6c0-0.1,0-0.2,0-0.2
				c0-0.1-0.1-0.1-0.1-0.1c-0.1,0-0.2-0.1-0.3-0.1h-2.2c-0.2,0-0.3,0-0.4,0.1c-0.1,0.1-0.1,0.2-0.2,0.3l-0.3,2.1
				c0,0.2-0.1,0.4-0.1,0.6c0,0.2-0.1,0.3-0.2,0.5C100.2,23.8,100.1,23.9,100,24L100,24z M103.2,20.7V24h-2.4c0-0.1,0.1-0.1,0.1-0.2
				c0-0.1,0.1-0.1,0.1-0.2c0-0.1,0.1-0.2,0.1-0.3c0-0.1,0.1-0.3,0.1-0.5c0-0.2,0.1-0.4,0.1-0.7l0.2-1.4H103.2L103.2,20.7z
				 M105.2,20.2v4.1c0,0.1,0,0.2,0.1,0.3c0.1,0.1,0.1,0.1,0.3,0.1h0.2c0.1,0,0.1,0,0.2,0c0,0,0.1,0,0.1-0.1c0,0,0.1-0.1,0.1-0.2
				l1.4-2.1c0.1-0.1,0.2-0.3,0.3-0.4c0.1-0.1,0.1-0.2,0.2-0.4c0.1-0.1,0.2-0.2,0.2-0.4h0.1v3.3c0,0.1,0,0.1,0,0.1c0,0,0.1,0,0.1,0
				h0.5c0.1,0,0.1,0,0.1,0c0,0,0,0,0-0.1v-4.1c0-0.1,0-0.2-0.1-0.3c-0.1-0.1-0.1-0.1-0.3-0.1h-0.2c-0.1,0-0.1,0-0.2,0
				c0,0-0.1,0-0.1,0.1c0,0-0.1,0.1-0.1,0.2l-1.3,2c-0.1,0.1-0.2,0.3-0.3,0.4c-0.1,0.1-0.2,0.3-0.2,0.4c-0.1,0.1-0.2,0.3-0.3,0.4h0
				v-3.4c0-0.1,0-0.1,0-0.1c0,0-0.1,0-0.1,0h-0.5c0,0-0.1,0-0.1,0C105.2,20.1,105.2,20.1,105.2,20.2L105.2,20.2L105.2,20.2z
				 M112,24.1c-0.3,0-0.5,0-0.6-0.1c-0.2-0.1-0.3-0.2-0.4-0.4c-0.1-0.2-0.2-0.3-0.2-0.5c0-0.2-0.1-0.4-0.1-0.7c0-0.2,0-0.5,0.1-0.7
				c0.1-0.2,0.1-0.4,0.2-0.6c0.1-0.2,0.2-0.3,0.4-0.4c0.2-0.1,0.4-0.1,0.6-0.1c0.2,0,0.4,0,0.5,0.1c0.2,0,0.3,0.1,0.5,0.2
				c0.1,0,0.1,0,0.1,0c0,0,0,0,0.1-0.1l0.2-0.4c0-0.1,0-0.1-0.1-0.2c-0.2-0.1-0.4-0.2-0.6-0.2c-0.2,0-0.4-0.1-0.7-0.1
				c-0.4,0-0.8,0.1-1.1,0.3c-0.3,0.2-0.5,0.5-0.7,0.8c-0.2,0.4-0.3,0.8-0.3,1.3c0,0.8,0.2,1.4,0.5,1.8c0.3,0.4,0.8,0.6,1.5,0.6
				c0.2,0,0.3,0,0.5,0c0.2,0,0.3-0.1,0.5-0.1c0.2,0,0.3-0.1,0.5-0.2c0,0,0.1,0,0.1-0.1c0,0,0-0.1,0-0.1l-0.2-0.4c0,0,0-0.1-0.1-0.1
				c0,0-0.1,0-0.1,0c-0.1,0-0.2,0.1-0.3,0.1c-0.1,0-0.2,0.1-0.4,0.1C112.3,24.1,112.1,24.1,112,24.1L112,24.1z M115.9,24.5v-3.8h1.4
				c0.1,0,0.1,0,0.1,0c0,0,0-0.1,0-0.1v-0.3c0-0.1,0-0.1,0-0.1c0,0-0.1,0-0.1,0h-3.5c-0.1,0-0.1,0-0.1,0c0,0,0,0.1,0,0.1v0.3
				c0,0,0,0.1,0,0.1c0,0,0.1,0,0.1,0h1.4v3.8c0,0.1,0,0.1,0,0.1c0,0,0.1,0,0.1,0h0.4c0.1,0,0.1,0,0.1,0
				C115.9,24.6,115.9,24.6,115.9,24.5L115.9,24.5z M121.5,24.2v-2.7c0-0.3-0.1-0.6-0.2-0.8c-0.1-0.2-0.3-0.4-0.6-0.5
				c-0.2-0.1-0.6-0.2-1-0.2c-0.2,0-0.3,0-0.5,0c-0.2,0-0.4,0-0.5,0.1c-0.2,0-0.3,0.1-0.5,0.1c0,0-0.1,0-0.1,0.1c0,0,0,0.1,0,0.1
				l0.1,0.4c0,0,0,0.1,0.1,0.1c0,0,0.1,0,0.1,0c0.1,0,0.2-0.1,0.4-0.1c0.1,0,0.3,0,0.4-0.1c0.2,0,0.3,0,0.4,0c0.2,0,0.4,0,0.5,0.1
				c0.1,0,0.2,0.1,0.3,0.2c0.1,0.1,0.1,0.2,0.2,0.3c0,0.1,0,0.2,0,0.4v0.2h-1.1c-0.3,0-0.6,0-0.9,0.1s-0.4,0.2-0.6,0.3
				c-0.2,0.1-0.3,0.3-0.3,0.5c-0.1,0.2-0.1,0.4-0.1,0.6c0,0.2,0,0.4,0.1,0.6c0.1,0.2,0.2,0.3,0.3,0.5c0.1,0.1,0.3,0.2,0.6,0.3
				c0.2,0.1,0.6,0.1,0.9,0.1c0.2,0,0.4,0,0.6,0c0.2,0,0.4,0,0.6-0.1c0.2,0,0.4-0.1,0.6-0.2c0,0,0.1,0,0.1-0.1
				C121.5,24.3,121.5,24.3,121.5,24.2L121.5,24.2z M120.8,22.4V24c-0.1,0-0.2,0.1-0.3,0.1c-0.1,0-0.2,0-0.3,0.1c-0.1,0-0.2,0-0.3,0
				c-0.1,0-0.2,0-0.2,0c-0.2,0-0.4,0-0.6-0.1c-0.2,0-0.3-0.1-0.4-0.3c-0.1-0.1-0.1-0.3-0.2-0.5c0-0.2,0-0.3,0.1-0.4
				c0.1-0.1,0.1-0.2,0.2-0.3c0.1-0.1,0.2-0.1,0.3-0.1c0.1,0,0.2-0.1,0.3-0.1c0.1,0,0.2,0,0.3,0H120.8L120.8,22.4z M123.3,24.5v-2
				h2.3v2c0,0.1,0,0.1,0,0.1c0,0,0.1,0,0.1,0h0.4c0.1,0,0.1,0,0.1,0c0,0,0-0.1,0-0.1v-4.3c0-0.1,0-0.1,0-0.1c0,0-0.1,0-0.1,0h-0.4
				c-0.1,0-0.1,0-0.1,0c0,0,0,0.1,0,0.1v1.7h-2.3v-1.7c0-0.1,0-0.1,0-0.1c0,0-0.1,0-0.1,0h-0.4c-0.1,0-0.1,0-0.1,0c0,0,0,0.1,0,0.1
				v4.3c0,0.1,0,0.1,0,0.1c0,0,0.1,0,0.1,0h0.4c0.1,0,0.1,0,0.1,0C123.3,24.6,123.3,24.6,123.3,24.5L123.3,24.5z M131.1,24v-3.8
				c0-0.1,0-0.1,0-0.1c0,0-0.1,0-0.1,0h-0.4c-0.1,0-0.1,0-0.1,0c0,0,0,0.1,0,0.1V24h-2.3v-3.8c0-0.1,0-0.1,0-0.1c0,0-0.1,0-0.1,0
				h-0.4c-0.1,0-0.1,0-0.1,0c0,0,0,0.1,0,0.1v4c0,0.1,0,0.3,0.1,0.3c0.1,0.1,0.2,0.1,0.3,0.1h3.1l0,1.3c0,0,0,0.1,0,0.1
				c0,0,0,0,0.1,0h0.5c0,0,0.1,0,0.1,0c0,0,0,0,0-0.1l0.1-1.6c0,0,0-0.1,0-0.1c0,0,0-0.1-0.1-0.1c0,0-0.1-0.1-0.2-0.1L131.1,24
				L131.1,24z M132.3,20.2v4.1c0,0.1,0,0.2,0.1,0.3c0.1,0.1,0.1,0.1,0.3,0.1h0.2c0.1,0,0.1,0,0.2,0c0,0,0.1,0,0.1-0.1
				c0,0,0.1-0.1,0.1-0.2l1.4-2.1c0.1-0.1,0.2-0.3,0.3-0.4c0.1-0.1,0.1-0.2,0.2-0.4c0.1-0.1,0.2-0.2,0.2-0.4h0.1v3.3
				c0,0.1,0,0.1,0,0.1c0,0,0.1,0,0.1,0h0.5c0.1,0,0.1,0,0.1,0c0,0,0,0,0-0.1v-4.1c0-0.1,0-0.2-0.1-0.3c-0.1-0.1-0.1-0.1-0.3-0.1
				h-0.2c-0.1,0-0.1,0-0.2,0c0,0-0.1,0-0.1,0.1c0,0-0.1,0.1-0.1,0.2l-1.3,2c-0.1,0.1-0.2,0.3-0.3,0.4c-0.1,0.1-0.2,0.3-0.2,0.4
				c-0.1,0.1-0.2,0.3-0.3,0.4h0v-3.4c0-0.1,0-0.1,0-0.1c0,0-0.1,0-0.1,0h-0.5c0,0-0.1,0-0.1,0C132.3,20.1,132.3,20.1,132.3,20.2
				L132.3,20.2L132.3,20.2z M141.1,22.3c0-0.5-0.1-0.9-0.2-1.3c-0.2-0.4-0.4-0.6-0.7-0.8c-0.3-0.2-0.7-0.3-1.1-0.3
				c-0.3,0-0.6,0.1-0.8,0.2c-0.2,0.1-0.5,0.3-0.6,0.5c-0.2,0.2-0.3,0.5-0.4,0.8c-0.1,0.3-0.2,0.6-0.2,1c0,0.8,0.2,1.4,0.5,1.8
				c0.3,0.4,0.8,0.6,1.5,0.6c0.4,0,0.8-0.1,1.1-0.3c0.3-0.2,0.5-0.5,0.7-0.8C141,23.3,141.1,22.9,141.1,22.3L141.1,22.3z
				 M140.3,22.4c0,0.2,0,0.4-0.1,0.6c0,0.2-0.1,0.4-0.2,0.6c-0.1,0.2-0.2,0.3-0.4,0.4c-0.2,0.1-0.4,0.1-0.6,0.1
				c-0.2,0-0.4,0-0.6-0.1c-0.2-0.1-0.3-0.2-0.4-0.4c-0.1-0.2-0.2-0.3-0.2-0.6c0-0.2-0.1-0.5-0.1-0.7c0-0.2,0-0.5,0.1-0.7
				c0.1-0.2,0.1-0.4,0.2-0.6c0.1-0.2,0.2-0.3,0.4-0.4c0.2-0.1,0.4-0.1,0.6-0.1c0.3,0,0.5,0.1,0.6,0.1c0.2,0.1,0.3,0.2,0.4,0.4
				c0.1,0.2,0.2,0.4,0.2,0.6C140.3,21.9,140.3,22.1,140.3,22.4L140.3,22.4z M142.7,24.5v-2h2.3v2c0,0.1,0,0.1,0,0.1c0,0,0.1,0,0.1,0
				h0.4c0.1,0,0.1,0,0.1,0c0,0,0-0.1,0-0.1v-4.3c0-0.1,0-0.1,0-0.1c0,0-0.1,0-0.1,0h-0.4c-0.1,0-0.1,0-0.1,0c0,0,0,0.1,0,0.1v1.7
				h-2.3v-1.7c0-0.1,0-0.1,0-0.1c0,0-0.1,0-0.1,0h-0.4c-0.1,0-0.1,0-0.1,0c0,0,0,0.1,0,0.1v4.3c0,0.1,0,0.1,0,0.1c0,0,0.1,0,0.1,0
				h0.4c0.1,0,0.1,0,0.1,0C142.7,24.6,142.7,24.6,142.7,24.5L142.7,24.5z M147.5,24.5v-2h2.3v2c0,0.1,0,0.1,0,0.1c0,0,0.1,0,0.1,0
				h0.4c0.1,0,0.1,0,0.1,0c0,0,0-0.1,0-0.1v-4.3c0-0.1,0-0.1,0-0.1c0,0-0.1,0-0.1,0h-0.4c-0.1,0-0.1,0-0.1,0c0,0,0,0.1,0,0.1v1.7
				h-2.3v-1.7c0-0.1,0-0.1,0-0.1c0,0-0.1,0-0.1,0h-0.4c-0.1,0-0.1,0-0.1,0c0,0,0,0.1,0,0.1v4.3c0,0.1,0,0.1,0,0.1c0,0,0.1,0,0.1,0
				h0.4c0.1,0,0.1,0,0.1,0C147.5,24.6,147.5,24.6,147.5,24.5L147.5,24.5z M155.4,22.3c0-0.5-0.1-0.9-0.2-1.3
				c-0.2-0.4-0.4-0.6-0.7-0.8c-0.3-0.2-0.7-0.3-1.1-0.3c-0.3,0-0.6,0.1-0.8,0.2c-0.2,0.1-0.5,0.3-0.6,0.5c-0.2,0.2-0.3,0.5-0.4,0.8
				c-0.1,0.3-0.2,0.6-0.2,1c0,0.8,0.2,1.4,0.5,1.8c0.3,0.4,0.8,0.6,1.5,0.6c0.4,0,0.8-0.1,1.1-0.3c0.3-0.2,0.5-0.5,0.7-0.8
				C155.3,23.3,155.4,22.9,155.4,22.3L155.4,22.3z M154.6,22.4c0,0.2,0,0.4-0.1,0.6c0,0.2-0.1,0.4-0.2,0.6c-0.1,0.2-0.2,0.3-0.4,0.4
				c-0.2,0.1-0.4,0.1-0.6,0.1c-0.2,0-0.4,0-0.6-0.1c-0.2-0.1-0.3-0.2-0.4-0.4c-0.1-0.2-0.2-0.3-0.2-0.6c0-0.2-0.1-0.5-0.1-0.7
				c0-0.2,0-0.5,0.1-0.7c0.1-0.2,0.1-0.4,0.2-0.6c0.1-0.2,0.2-0.3,0.4-0.4c0.2-0.1,0.4-0.1,0.6-0.1c0.3,0,0.5,0.1,0.6,0.1
				c0.2,0.1,0.3,0.2,0.4,0.4c0.1,0.2,0.2,0.4,0.2,0.6C154.6,21.9,154.6,22.1,154.6,22.4L154.6,22.4z M157.6,20.7h1.8
				c0.1,0,0.1,0,0.1,0c0,0,0-0.1,0-0.1v-0.3c0-0.1,0-0.1,0-0.1c0,0-0.1,0-0.1,0h-1.8c-0.3,0-0.5,0-0.7,0.1c-0.2,0.1-0.3,0.2-0.4,0.3
				c-0.1,0.1-0.2,0.3-0.2,0.4c0,0.2-0.1,0.3-0.1,0.5v3.1c0,0.1,0,0.1,0,0.1c0,0,0.1,0,0.1,0h0.4c0.1,0,0.1,0,0.1,0c0,0,0-0.1,0-0.1
				v-3.2c0-0.2,0-0.4,0.1-0.5C157.2,20.8,157.4,20.7,157.6,20.7L157.6,20.7z M164,22.3c0-0.5-0.1-0.9-0.2-1.3
				c-0.2-0.4-0.4-0.6-0.7-0.8c-0.3-0.2-0.7-0.3-1.1-0.3c-0.3,0-0.6,0.1-0.8,0.2c-0.2,0.1-0.5,0.3-0.6,0.5c-0.2,0.2-0.3,0.5-0.4,0.8
				c-0.1,0.3-0.2,0.6-0.2,1c0,0.8,0.2,1.4,0.5,1.8c0.3,0.4,0.8,0.6,1.5,0.6c0.4,0,0.8-0.1,1.1-0.3c0.3-0.2,0.5-0.5,0.7-0.8
				C163.9,23.3,164,22.9,164,22.3L164,22.3z M163.2,22.4c0,0.2,0,0.4-0.1,0.6c0,0.2-0.1,0.4-0.2,0.6c-0.1,0.2-0.2,0.3-0.4,0.4
				c-0.2,0.1-0.4,0.1-0.6,0.1c-0.2,0-0.4,0-0.6-0.1c-0.2-0.1-0.3-0.2-0.4-0.4c-0.1-0.2-0.2-0.3-0.2-0.6c0-0.2-0.1-0.5-0.1-0.7
				c0-0.2,0-0.5,0.1-0.7c0.1-0.2,0.1-0.4,0.2-0.6c0.1-0.2,0.2-0.3,0.4-0.4c0.2-0.1,0.4-0.1,0.6-0.1c0.3,0,0.5,0.1,0.6,0.1
				c0.2,0.1,0.3,0.2,0.4,0.4c0.1,0.2,0.2,0.4,0.2,0.6C163.2,21.9,163.2,22.1,163.2,22.4L163.2,22.4z M171.1,22.3
				c0-0.5-0.1-0.9-0.2-1.3c-0.2-0.4-0.4-0.6-0.7-0.8c-0.3-0.2-0.7-0.3-1.1-0.3c-0.3,0-0.6,0.1-0.8,0.2c-0.2,0.1-0.5,0.3-0.6,0.5
				c-0.2,0.2-0.3,0.5-0.4,0.8c-0.1,0.3-0.2,0.6-0.2,1c0,0.8,0.2,1.4,0.5,1.8c0.3,0.4,0.8,0.6,1.5,0.6c0.4,0,0.8-0.1,1.1-0.3
				c0.3-0.2,0.5-0.5,0.7-0.8C171,23.3,171.1,22.9,171.1,22.3L171.1,22.3z M170.3,22.4c0,0.2,0,0.4-0.1,0.6c0,0.2-0.1,0.4-0.2,0.6
				c-0.1,0.2-0.2,0.3-0.4,0.4c-0.2,0.1-0.4,0.1-0.6,0.1c-0.2,0-0.4,0-0.6-0.1c-0.2-0.1-0.3-0.2-0.4-0.4c-0.1-0.2-0.2-0.3-0.2-0.6
				c0-0.2-0.1-0.5-0.1-0.7c0-0.2,0-0.5,0.1-0.7c0.1-0.2,0.1-0.4,0.2-0.6c0.1-0.2,0.2-0.3,0.4-0.4c0.2-0.1,0.4-0.1,0.6-0.1
				c0.3,0,0.5,0.1,0.6,0.1c0.2,0.1,0.3,0.2,0.4,0.4c0.1,0.2,0.2,0.4,0.2,0.6C170.3,21.9,170.3,22.1,170.3,22.4L170.3,22.4z
				 M173.7,24.1c-0.2,0-0.4,0-0.6-0.1c-0.2-0.1-0.3-0.2-0.4-0.3c-0.1-0.1-0.2-0.3-0.2-0.5c0-0.2-0.1-0.4-0.1-0.6c0-0.1,0-0.2,0-0.3
				c0-0.1,0-0.2,0-0.3c0-0.1,0-0.3,0-0.5c0.1-0.1,0.3-0.2,0.5-0.3c0.2-0.1,0.3-0.1,0.5-0.2c0.2,0,0.3-0.1,0.5-0.1
				c0.2,0,0.4,0,0.6,0.1c0.1,0.1,0.3,0.2,0.3,0.4c0.1,0.1,0.1,0.3,0.2,0.5c0,0.2,0.1,0.4,0.1,0.6c0,0.1,0,0.3,0,0.4
				c0,0.1-0.1,0.3-0.1,0.4c-0.1,0.1-0.1,0.3-0.2,0.4c-0.1,0.1-0.2,0.2-0.4,0.3C174.1,24.1,173.9,24.1,173.7,24.1L173.7,24.1z
				 M174,20.4c-0.1,0-0.3,0-0.5,0c-0.2,0-0.3,0.1-0.5,0.1c-0.2,0.1-0.3,0.1-0.5,0.2c0,0,0,0,0,0c0,0,0,0,0,0c0-0.3,0.1-0.5,0.1-0.7
				c0.1-0.2,0.1-0.3,0.3-0.5c0.1-0.1,0.3-0.2,0.4-0.3c0.2-0.1,0.4-0.2,0.7-0.2c0.2,0,0.3-0.1,0.5-0.1c0.2,0,0.4-0.1,0.6-0.1
				c0,0,0.1,0,0.1-0.1c0,0,0-0.1,0-0.1l-0.1-0.3c0,0,0-0.1-0.1-0.1c0,0-0.1,0-0.1,0c-0.1,0-0.2,0-0.4,0.1c-0.1,0-0.3,0.1-0.4,0.1
				c-0.1,0-0.3,0.1-0.4,0.1c-0.1,0-0.3,0.1-0.4,0.1c-0.3,0.1-0.6,0.2-0.8,0.4c-0.2,0.2-0.4,0.4-0.5,0.6c-0.1,0.2-0.2,0.5-0.3,0.8
				c-0.1,0.3-0.1,0.6-0.1,1c0,0.4,0,0.8,0,1.2c0,0.2,0,0.4,0,0.6c0,0.2,0.1,0.4,0.2,0.6c0.1,0.2,0.2,0.4,0.3,0.5
				c0.1,0.1,0.3,0.3,0.6,0.3c0.2,0.1,0.5,0.1,0.9,0.1c0.3,0,0.6,0,0.9-0.1c0.2-0.1,0.4-0.2,0.6-0.4c0.2-0.2,0.3-0.3,0.4-0.5
				c0.1-0.2,0.2-0.4,0.2-0.6c0-0.2,0.1-0.4,0.1-0.6c0-0.2,0-0.4-0.1-0.7c0-0.2-0.1-0.4-0.2-0.6c-0.1-0.2-0.2-0.3-0.3-0.5
				c-0.1-0.1-0.3-0.2-0.5-0.3C174.5,20.4,174.3,20.4,174,20.4L174,20.4z M178.5,25.4l1.8-5.3c0,0,0-0.1,0-0.1c0,0,0,0-0.1,0h-0.6
				c0,0-0.1,0-0.1,0c0,0,0,0,0,0.1c0,0.1-0.1,0.2-0.1,0.3c0,0.1-0.1,0.3-0.2,0.5c-0.1,0.2-0.1,0.3-0.2,0.5c-0.1,0.2-0.1,0.3-0.2,0.5
				c0,0.1-0.1,0.3-0.1,0.4c0,0.1-0.1,0.1-0.1,0.2c0,0,0,0.1,0,0.1c0,0.1-0.1,0.2-0.1,0.3c0,0.1-0.1,0.2-0.1,0.3
				c0,0.1-0.1,0.2-0.1,0.4c0,0.1-0.1,0.2-0.1,0.3c0,0.1,0,0.1-0.1,0.2h-0.1l-0.4-1.5c0,0,0-0.1-0.1-0.2c0-0.1-0.1-0.2-0.1-0.3
				c0-0.1-0.1-0.3-0.1-0.4c0-0.2-0.1-0.3-0.1-0.5c0-0.2-0.1-0.3-0.1-0.4c0-0.1-0.1-0.2-0.1-0.3c0-0.1,0-0.2-0.1-0.2c0,0,0-0.1,0-0.1
				c0,0,0,0-0.1,0h-0.6c0,0-0.1,0-0.1,0c0,0,0,0,0,0.1l1.3,4.2c0,0.1,0.1,0.2,0.1,0.2c0,0,0.1,0.1,0.1,0.1c0,0,0.1,0,0.2,0h0.2
				c0,0,0,0.1,0,0.1c0,0.1,0,0.1-0.1,0.2c0,0.1,0,0.1-0.1,0.2c0,0.1,0,0.1,0,0.1c0,0.2-0.1,0.3-0.2,0.4c-0.1,0.1-0.2,0.1-0.3,0.2
				c-0.1,0-0.2,0-0.3,0c0,0-0.1,0-0.1,0c0,0-0.1,0-0.1,0c0,0-0.1,0-0.2,0c0,0-0.1,0-0.1,0c0,0,0,0-0.1,0.1l-0.1,0.4c0,0,0,0.1,0,0.1
				c0,0,0,0,0.1,0.1c0.1,0,0.3,0.1,0.4,0.1c0.1,0,0.2,0,0.3,0c0.2,0,0.4,0,0.6-0.1c0.2-0.1,0.3-0.2,0.4-0.3
				C178.3,25.9,178.4,25.7,178.5,25.4L178.5,25.4z M180.5,20.2v1c0,0.4,0.1,0.7,0.2,1c0.1,0.3,0.3,0.5,0.6,0.6
				c0.3,0.1,0.6,0.2,1,0.2c0.1,0,0.2,0,0.4,0c0.1,0,0.3,0,0.4-0.1c0.1,0,0.3-0.1,0.4-0.1v1.7c0,0.1,0,0.1,0,0.1c0,0,0.1,0,0.1,0h0.5
				c0,0,0.1,0,0.1,0c0,0,0-0.1,0-0.1v-4.3c0-0.1,0-0.1,0-0.1c0,0-0.1,0-0.1,0h-0.5c-0.1,0-0.1,0-0.1,0c0,0,0,0.1,0,0.1v1.9
				c-0.1,0-0.2,0.1-0.3,0.1c-0.1,0-0.2,0-0.4,0.1c-0.1,0-0.2,0-0.3,0c-0.2,0-0.4,0-0.5,0c-0.1,0-0.3-0.1-0.3-0.2
				c-0.1-0.1-0.2-0.2-0.2-0.3c0-0.1-0.1-0.3-0.1-0.5v-1c0-0.1,0-0.1,0-0.1c0,0-0.1,0-0.1,0h-0.5c0,0-0.1,0-0.1,0
				C180.5,20.1,180.5,20.1,180.5,20.2z"/>
			<path class="st0" d="M187,20c-0.3,0-0.6,0.1-0.8,0.2c-0.2,0.1-0.5,0.3-0.6,0.5c-0.2,0.2-0.3,0.5-0.4,0.8c-0.1,0.3-0.2,0.6-0.2,1
				c0,0.5,0.1,1,0.3,1.3c0.2,0.4,0.4,0.6,0.7,0.8c0.3,0.2,0.7,0.3,1.1,0.2c0.2,0,0.3,0,0.5,0c0.2,0,0.3-0.1,0.5-0.1
				c0.2,0,0.3-0.1,0.4-0.2c0,0,0.1,0,0.1-0.1c0,0,0-0.1,0-0.1l-0.2-0.4c0,0,0-0.1-0.1-0.1c0,0-0.1,0-0.1,0c-0.1,0-0.2,0.1-0.3,0.1
				c-0.1,0-0.2,0.1-0.4,0.1c-0.1,0-0.3,0-0.4,0c-0.2,0-0.4,0-0.5-0.1c-0.2-0.1-0.3-0.1-0.4-0.3c-0.1-0.1-0.2-0.3-0.3-0.5
				c-0.1-0.2-0.1-0.4-0.1-0.7h2.5c0.1,0,0.2,0,0.3-0.1c0.1,0,0.2-0.1,0.2-0.2c0.1-0.1,0.1-0.2,0.1-0.4c0-0.3,0-0.6-0.1-0.8
				c-0.1-0.2-0.2-0.4-0.3-0.6c-0.2-0.2-0.4-0.3-0.6-0.4C187.7,20,187.4,20,187,20L187,20z M188.2,22h-2.4c0-0.2,0-0.4,0.1-0.5
				c0.1-0.2,0.1-0.3,0.2-0.4c0.1-0.1,0.2-0.2,0.4-0.3c0.1-0.1,0.3-0.1,0.5-0.1c0.2,0,0.4,0,0.6,0.1c0.2,0.1,0.3,0.2,0.4,0.3
				c0.1,0.1,0.2,0.3,0.2,0.4C188.2,21.6,188.2,21.8,188.2,22L188.2,22z M190.5,24.5v-2h2.3v2c0,0.1,0,0.1,0,0.1c0,0,0.1,0,0.1,0h0.4
				c0.1,0,0.1,0,0.1,0c0,0,0-0.1,0-0.1v-4.3c0-0.1,0-0.1,0-0.1c0,0-0.1,0-0.1,0H193c-0.1,0-0.1,0-0.1,0c0,0,0,0.1,0,0.1v1.7h-2.3
				v-1.7c0-0.1,0-0.1,0-0.1c0,0-0.1,0-0.1,0h-0.4c-0.1,0-0.1,0-0.1,0c0,0,0,0.1,0,0.1v4.3c0,0.1,0,0.1,0,0.1c0,0,0.1,0,0.1,0h0.4
				c0.1,0,0.1,0,0.1,0C190.5,24.6,190.5,24.6,190.5,24.5L190.5,24.5z M194.5,20.2v4.1c0,0.1,0,0.2,0.1,0.3c0.1,0.1,0.1,0.1,0.3,0.1
				h0.2c0.1,0,0.1,0,0.2,0c0,0,0.1,0,0.1-0.1c0,0,0.1-0.1,0.1-0.2l1.4-2.1c0.1-0.1,0.2-0.3,0.3-0.4c0.1-0.1,0.1-0.2,0.2-0.4
				c0.1-0.1,0.2-0.2,0.2-0.4h0.1v3.3c0,0.1,0,0.1,0,0.1c0,0,0.1,0,0.1,0h0.5c0.1,0,0.1,0,0.1,0c0,0,0,0,0-0.1v-4.1
				c0-0.1,0-0.2-0.1-0.3c-0.1-0.1-0.1-0.1-0.3-0.1h-0.2c-0.1,0-0.1,0-0.2,0c0,0-0.1,0-0.1,0.1c0,0-0.1,0.1-0.1,0.2l-1.3,2
				c-0.1,0.1-0.2,0.3-0.3,0.4c-0.1,0.1-0.2,0.3-0.2,0.4c-0.1,0.1-0.2,0.3-0.3,0.4h0v-3.4c0-0.1,0-0.1,0-0.1c0,0-0.1,0-0.1,0h-0.5
				c0,0-0.1,0-0.1,0C194.6,20.1,194.5,20.1,194.5,20.2L194.5,20.2L194.5,20.2z M202.7,20h-1.8c-0.2,0-0.5,0-0.6,0.1
				c-0.2,0.1-0.3,0.2-0.5,0.3c-0.1,0.1-0.2,0.3-0.3,0.4c-0.1,0.2-0.1,0.3-0.1,0.5c0,0.2,0,0.3,0.1,0.5c0.1,0.2,0.1,0.3,0.3,0.4
				c0.1,0.1,0.3,0.2,0.5,0.3c0,0,0,0,0,0c0,0,0,0,0,0c-0.1,0-0.2,0.1-0.3,0.2c-0.1,0.1-0.1,0.1-0.2,0.2c0,0.1-0.1,0.2-0.1,0.3
				l-0.4,1.3v0.1c0,0,0,0,0,0.1c0,0,0,0,0.1,0h0.5c0,0,0.1,0,0.1,0c0,0,0.1,0,0.1-0.1l0.4-1.2c0.1-0.2,0.1-0.3,0.2-0.4
				c0.1-0.1,0.2-0.1,0.3-0.2c0.1,0,0.3,0,0.4,0h1.1v1.8c0,0.1,0,0.1,0,0.1c0,0,0.1,0,0.1,0h0.5c0,0,0.1,0,0.1,0c0,0,0,0,0-0.1v-4.1
				c0-0.1,0-0.1-0.1-0.2c0-0.1-0.1-0.1-0.1-0.1C202.8,20.1,202.7,20,202.7,20L202.7,20z M200.9,20.7h1.4v1.5h-1.3
				c-0.2,0-0.4,0-0.5-0.1s-0.2-0.2-0.3-0.3c-0.1-0.1-0.1-0.2-0.1-0.4c0-0.1,0-0.2,0-0.2c0-0.1,0.1-0.2,0.1-0.2
				c0.1-0.1,0.1-0.1,0.3-0.2C200.6,20.7,200.7,20.7,200.9,20.7z"/>
		</g>
	</g>
	<g>
		<path class="st1" d="M40,0c11,0,21,4.5,28.3,11.7L52.5,27.5c-3.2-3.2-7.6-5.2-12.5-5.2c-9.8,0-17.7,7.9-17.7,17.7
			S30.2,57.7,40,57.7c5.7,0,10.8-2.7,14-6.9l15.8,15.8C62.5,74.8,51.9,80,40,80C17.9,80,0,62.1,0,40S17.9,0,40,0z"/>
		<linearGradient id="SVGID_1_" gradientUnits="userSpaceOnUse" x1="-57.3585" y1="44.1115" x2="109.8899" y2="44.1115">
			<stop  offset="0" style="stop-color:#DB0714"/>
			<stop  offset="0.35" style="stop-color:#DB0714"/>
			<stop  offset="0.65" style="stop-color:#C00A26"/>
			<stop  offset="1" style="stop-color:#C00A26"/>
		</linearGradient>
		<path class="st2" d="M52.5,27.5c-3.2-3.2-7.6-5.2-12.5-5.2s-9.3,2-12.5,5.2C12.2,38.8,6.5,66,25,77.1C10.3,71.1,0,56.8,0,40
			c0-5.6,1.2-10.9,3.2-15.8C12.2,6.6,38.6,5.9,52.5,27.5z"/>
		<linearGradient id="SVGID_2_" gradientUnits="userSpaceOnUse" x1="41.611" y1="141.8548" x2="41.611" y2="-58.9211">
			<stop  offset="0" style="stop-color:#ECECEC"/>
			<stop  offset="0.25" style="stop-color:#ECECEC"/>
			<stop  offset="1" style="stop-color:#B1B1B1"/>
		</linearGradient>
		<path class="st3" d="M27.5,27.5c-3.2,3.2-5.2,7.6-5.2,12.5c0,1.5,0.2,2.9,0.5,4.3c2.5,17.6,26,32.4,47,22.3
			C62.5,74.8,51.9,80,40,80c-5.3,0-10.4-1-15-2.9C6.5,66,12.2,38.8,27.5,27.5z"/>
		<linearGradient id="SVGID_3_" gradientUnits="userSpaceOnUse" x1="68.2395" y1="13.7369" x2="3.1853" y2="13.7369">
			<stop  offset="0" style="stop-color:#ECECEC"/>
			<stop  offset="0.25" style="stop-color:#ECECEC"/>
			<stop  offset="1" style="stop-color:#B1B1B1"/>
		</linearGradient>
		<path class="st4" d="M40,0c11,0,21,4.5,28.3,11.7L52.5,27.5C38.5,5.9,12.1,6.6,3.2,24.2C9.3,10,23.5,0,40,0z"/>
		<linearGradient id="SVGID_4_" gradientUnits="userSpaceOnUse" x1="80.9797" y1="57.1144" x2="11.6715" y2="57.1144">
			<stop  offset="0" style="stop-color:#ECECEC"/>
			<stop  offset="0.25" style="stop-color:#ECECEC"/>
			<stop  offset="1" style="stop-color:#B1B1B1"/>
		</linearGradient>
		<path class="st5" d="M22.8,44.3C24.7,52,31.7,57.7,40,57.7c5.7,0,10.8-2.7,14-6.9l15.8,15.8C48.9,76.7,25.3,61.9,22.8,44.3z"/>
	</g>
</g>
</svg>
